<?xml version="1.0" encoding="UTF-8"?>
<!DOCTYPE svg PUBLIC "-//W3C//DTD SVG 1.1//EN" "http://www.w3.org/Graphics/SVG/1.1/DTD/svg11.dtd">
<svg xmlns="http://www.w3.org/2000/svg" version="1.1" width="789px" height="939px" style="shape-rendering:geometricPrecision; text-rendering:geometricPrecision; image-rendering:optimizeQuality; fill-rule:evenodd; clip-rule:evenodd" xmlns:xlink="http://www.w3.org/1999/xlink">
<g><path style="opacity:0.995" fill="#090909" d="M 391.5,-0.5 C 392.5,-0.5 393.5,-0.5 394.5,-0.5C 458.953,33.7271 487.12,87.3938 479,160.5C 506.559,176.87 532.059,196.036 555.5,218C 611.048,243.918 662.048,276.585 708.5,316C 731.366,336.31 750.533,359.476 766,385.5C 777.424,405.944 784.924,427.611 788.5,450.5C 788.5,462.167 788.5,473.833 788.5,485.5C 782.725,521.719 768.225,554.052 745,582.5C 736.537,592.632 727.704,602.465 718.5,612C 670.678,655.601 617.345,691.268 558.5,719C 533.98,741.92 507.313,761.92 478.5,779C 486.765,838.104 467.431,885.77 420.5,922C 411.938,927.774 403.271,933.274 394.5,938.5C 393.5,938.5 392.5,938.5 391.5,938.5C 392.118,913.527 386.951,889.861 376,867.5C 363.397,848.734 346.897,834.401 326.5,824.5C 306.713,846.79 286.713,868.957 266.5,891C 225.529,923.602 179.196,934.602 127.5,924C 88.518,915.671 52.8513,900.004 20.5,877C 8.93661,867.363 1.93661,855.197 -0.5,840.5C -0.5,835.5 -0.5,830.5 -0.5,825.5C 9.67803,787.228 34.3447,772.061 73.5,780C 83.3282,784.501 92.6615,789.834 101.5,796C 116.84,804.835 133.173,811.002 150.5,814.5C 155.476,815.498 160.476,815.665 165.5,815C 142.468,803.236 121.635,788.403 103,770.5C 87.1391,746.361 87.8058,722.695 105,699.5C 114.221,689.137 125.721,682.804 139.5,680.5C 89.8191,619.145 63.8191,548.811 61.5,469.5C 64.0849,389.888 90.4182,319.388 140.5,258C 107.607,250.766 91.4404,230.266 92,196.5C 93.712,182.577 99.5453,170.743 109.5,161C 127.296,146.597 146.296,133.93 166.5,123C 144.355,123.713 123.688,129.713 104.5,141C 94.9977,146.919 85.331,152.586 75.5,158C 35.5966,167.533 10.2633,152.7 -0.5,113.5C -0.5,108.5 -0.5,103.5 -0.5,98.5C 1.81277,85.7086 7.47944,74.5419 16.5,65C 54.7373,36.0576 97.7373,18.3909 145.5,12C 194.836,6.72339 237.503,20.8901 273.5,54.5C 289,72.1667 304.5,89.8333 320,107.5C 322.382,110.219 325.049,112.553 328,114.5C 365.749,96.0545 386.416,65.7211 390,23.5C 390.567,15.4995 391.067,7.49951 391.5,-0.5 Z"/></g>
<g><path style="opacity:1" fill="#ad6324" d="M 154.5,54.5 C 172.966,52.7995 190.632,55.4662 207.5,62.5C 206.175,66.4451 205.508,70.7784 205.5,75.5C 205.527,80.2466 205.86,84.9132 206.5,89.5C 189.659,82.0917 171.992,78.7583 153.5,79.5C 152.5,79.5 151.5,79.5 150.5,79.5C 150.5,71.5 150.5,63.5 150.5,55.5C 152.099,55.7678 153.432,55.4345 154.5,54.5 Z"/></g>
<g><path style="opacity:1" fill="#9c551b" d="M 154.5,54.5 C 153.432,55.4345 152.099,55.7678 150.5,55.5C 150.5,63.5 150.5,71.5 150.5,79.5C 151.5,79.5 152.5,79.5 153.5,79.5C 129.221,82.9264 106.221,90.5931 84.5,102.5C 82.5289,93.8955 81.8623,84.8955 82.5,75.5C 105.119,63.8443 129.119,56.8443 154.5,54.5 Z"/></g>
<g><path style="opacity:1" fill="#ba6c2b" d="M 207.5,62.5 C 226.274,69.6031 241.608,81.2698 253.5,97.5C 252.505,109.322 252.172,121.322 252.5,133.5C 241.733,121.563 230.733,109.729 219.5,98C 215.102,95.1428 210.768,92.3095 206.5,89.5C 205.86,84.9132 205.527,80.2466 205.5,75.5C 205.508,70.7784 206.175,66.4451 207.5,62.5 Z"/></g>
<g><path style="opacity:1" fill="#8f4b14" d="M 82.5,75.5 C 81.8623,84.8955 82.5289,93.8955 84.5,102.5C 76.5603,106.809 68.8937,111.642 61.5,117C 50.8074,120.322 44.4741,116.488 42.5,105.5C 42.5804,100.916 44.5804,97.416 48.5,95C 59.3716,87.7298 70.7049,81.2298 82.5,75.5 Z"/></g>
<g><path style="opacity:1" fill="#44841b" d="M 420.5,90.5 C 421.496,90.4142 422.329,90.7476 423,91.5C 431.974,114.155 433.974,137.489 429,161.5C 412,165.292 395.167,169.458 378.5,174C 372.167,167 365.833,160 359.5,153C 379.789,141.378 396.956,126.212 411,107.5C 414.698,102.102 417.864,96.4352 420.5,90.5 Z"/></g>
<g><path style="opacity:1" fill="#c97733" d="M 253.5,97.5 C 278.177,124.845 302.51,152.511 326.5,180.5C 325.506,190.987 325.172,201.654 325.5,212.5C 313.006,200.839 301.006,188.672 289.5,176C 282.015,169.669 273.348,166.169 263.5,165.5C 260.038,164.518 256.371,164.185 252.5,164.5C 252.5,155.167 252.5,145.833 252.5,136.5C 253.625,135.652 253.625,134.652 252.5,133.5C 252.172,121.322 252.505,109.322 253.5,97.5 Z"/></g>
<g><path style="opacity:1" fill="#b36727" d="M 252.5,136.5 C 252.5,145.833 252.5,155.167 252.5,164.5C 256.371,164.185 260.038,164.518 263.5,165.5C 250.711,164.321 238.377,166.155 226.5,171C 209.943,177.278 194.277,185.112 179.5,194.5C 178.506,185.348 178.173,176.015 178.5,166.5C 201.502,152.675 226.169,142.675 252.5,136.5 Z"/></g>
<g><path style="opacity:1" fill="#a75e21" d="M 178.5,166.5 C 178.173,176.015 178.506,185.348 179.5,194.5C 169.9,201.311 160.233,208.145 150.5,215C 141.559,215.568 136.226,211.402 134.5,202.5C 135.276,197.205 137.943,193.038 142.5,190C 153.86,181.131 165.86,173.297 178.5,166.5 Z"/></g>
<g><path style="opacity:1" fill="#282421" d="M 489.5,253.5 C 394.167,319.833 298.833,386.167 203.5,452.5C 208.675,397.503 229.175,349.169 265,307.5C 280.081,291.083 296.415,276.083 314,262.5C 325.863,274.029 337.363,285.862 348.5,298C 371.406,311.457 392.239,308.957 411,290.5C 424.325,269.9 426.991,247.9 419,224.5C 417.825,220.456 415.992,216.789 413.5,213.5C 427.517,209.161 441.851,205.827 456.5,203.5C 458.628,204.054 460.128,205.387 461,207.5C 470.329,222.983 479.829,238.317 489.5,253.5 Z"/></g>
<g><path style="opacity:1" fill="#d8833c" d="M 326.5,180.5 C 343.801,199.305 360.968,218.305 378,237.5C 381.489,246.12 381.322,254.62 377.5,263C 376.5,263.667 375.5,263.667 374.5,263C 357.815,246.422 341.482,229.589 325.5,212.5C 325.172,201.654 325.506,190.987 326.5,180.5 Z"/></g>
<g><path style="opacity:1" fill="#44841b" d="M 260.5,209.5 C 267.577,215.071 274.244,221.238 280.5,228C 223.903,270.282 184.736,325.115 163,392.5C 136.486,507.631 165.986,605.798 251.5,687C 260.875,695.377 270.542,703.377 280.5,711C 274,717.5 267.5,724 261,730.5C 215.22,697.395 177.886,656.728 149,608.5C 96.6865,513.586 97.6865,419.252 152,325.5C 180.385,279.613 216.552,240.946 260.5,209.5 Z"/></g>
<g><path style="opacity:1" fill="#2b2623" d="M 489.5,253.5 C 501.948,273.555 514.281,293.722 526.5,314C 516.092,324.328 507.259,335.828 500,348.5C 481.801,339.992 462.634,335.159 442.5,334C 426.833,333.333 411.167,333.333 395.5,334C 374.823,337.548 365.323,349.714 367,370.5C 371.34,392.353 378.173,413.353 387.5,433.5C 380.185,438.474 372.851,443.474 365.5,448.5C 364.571,449.689 364.238,451.022 364.5,452.5C 352.291,419.179 328.291,403.679 292.5,406C 259.025,413.804 241.025,434.804 238.5,469C 238.98,490.123 247.313,507.29 263.5,520.5C 250.733,528.753 238.066,537.253 225.5,546C 222.638,547.735 220.304,549.902 218.5,552.5C 206.147,520.362 201.147,487.029 203.5,452.5C 298.833,386.167 394.167,319.833 489.5,253.5 Z"/></g>
<g><path style="opacity:1" fill="#497702" d="M 543.5,261.5 C 543.56,260.957 543.893,260.624 544.5,260.5C 555.151,265.491 565.484,270.991 575.5,277C 570.333,280.167 565.167,283.333 560,286.5C 554.476,278.101 548.976,269.768 543.5,261.5 Z"/></g>
<g><path style="opacity:1" fill="#67b336" d="M 580.5,401.5 C 579.168,389.352 578.501,376.852 578.5,364C 578.509,351.093 578.842,338.26 579.5,325.5C 582.417,322.697 585.75,320.363 589.5,318.5C 600.276,342.825 603.776,368.158 600,394.5C 593.39,396.537 586.89,398.87 580.5,401.5 Z"/></g>
<g><path style="opacity:1" fill="#5da52f" d="M 579.5,325.5 C 578.842,338.26 578.509,351.093 578.5,364C 578.501,376.852 579.168,389.352 580.5,401.5C 570.39,407.062 560.724,413.395 551.5,420.5C 550.502,397.673 550.169,374.673 550.5,351.5C 553.898,346.594 557.898,342.094 562.5,338C 568.063,333.591 573.729,329.424 579.5,325.5 Z"/></g>
<g><path style="opacity:1" fill="#365e04" d="M 703.5,373.5 C 698.62,385.592 692.953,397.259 686.5,408.5C 672.817,401.825 658.484,397.158 643.5,394.5C 644.486,383.516 644.653,372.516 644,361.5C 641.435,344.921 638.101,328.588 634,312.5C 657.427,328.58 679.094,346.914 699,367.5C 700.332,369.66 701.832,371.66 703.5,373.5 Z"/></g>
<g><path style="opacity:1" fill="#529528" d="M 550.5,351.5 C 550.169,374.673 550.502,397.673 551.5,420.5C 547.87,424.631 544.037,428.631 540,432.5C 524.365,402.832 527.865,375.832 550.5,351.5 Z"/></g>
<g><path style="opacity:1" fill="#2e5305" d="M 703.5,373.5 C 714.443,385.117 723.443,398.117 730.5,412.5C 727.658,418.857 724.325,424.857 720.5,430.5C 709.431,422.765 698.097,415.432 686.5,408.5C 692.953,397.259 698.62,385.592 703.5,373.5 Z"/></g>
<g><path style="opacity:1" fill="#529528" d="M 445.5,377.5 C 445.5,398.833 445.5,420.167 445.5,441.5C 434.07,430.196 425.57,416.863 420,401.5C 416.774,392.995 414.274,384.328 412.5,375.5C 423.609,375.016 434.609,375.683 445.5,377.5 Z"/></g>
<g><path style="opacity:1" fill="#599e2c" d="M 445.5,377.5 C 450.049,377.624 454.382,378.291 458.5,379.5C 456.51,402.81 455.843,426.476 456.5,450.5C 452.242,448.207 448.576,445.207 445.5,441.5C 445.5,420.167 445.5,398.833 445.5,377.5 Z"/></g>
<g><path style="opacity:1" fill="#61ab32" d="M 458.5,379.5 C 468.633,381.451 478.3,384.784 487.5,389.5C 486.863,414.086 492.863,436.92 505.5,458C 492.421,460.416 479.421,459.749 466.5,456C 462.944,454.392 459.611,452.559 456.5,450.5C 455.843,426.476 456.51,402.81 458.5,379.5 Z"/></g>
<g><path style="opacity:1" fill="#090909" d="M 364.5,452.5 C 370.397,480.858 362.063,504.025 339.5,522C 313.759,537.758 288.426,537.258 263.5,520.5C 247.313,507.29 238.98,490.123 238.5,469C 241.025,434.804 259.025,413.804 292.5,406C 328.291,403.679 352.291,419.179 364.5,452.5 Z"/></g>
<g><path style="opacity:1" fill="#284a05" d="M 730.5,412.5 C 738.483,424.95 742.983,438.616 744,453.5C 736.934,444.933 729.101,437.266 720.5,430.5C 724.325,424.857 727.658,418.857 730.5,412.5 Z"/></g>
<g><path style="opacity:1" fill="#2f2926" d="M 387.5,433.5 C 394.455,446.62 402.789,458.787 412.5,470C 391.088,495.991 376.422,525.491 368.5,558.5C 333.535,582.13 299.202,606.464 265.5,631.5C 245.013,608.218 229.346,581.884 218.5,552.5C 220.304,549.902 222.638,547.735 225.5,546C 238.066,537.253 250.733,528.753 263.5,520.5C 288.426,537.258 313.759,537.758 339.5,522C 362.063,504.025 370.397,480.858 364.5,452.5C 364.238,451.022 364.571,449.689 365.5,448.5C 372.851,443.474 380.185,438.474 387.5,433.5 Z"/></g>
<g><path style="opacity:1" fill="#5ba32e" d="M 642.5,437.5 C 642.5,458.167 642.5,478.833 642.5,499.5C 639.466,501.018 636.133,501.851 632.5,502C 626.509,502.499 620.509,502.666 614.5,502.5C 613.189,491.559 612.522,480.392 612.5,469C 612.522,457.608 613.189,446.441 614.5,435.5C 624.075,433.866 633.408,434.533 642.5,437.5 Z"/></g>
<g><path style="opacity:1" fill="#549829" d="M 614.5,435.5 C 613.189,446.441 612.522,457.608 612.5,469C 612.522,480.392 613.189,491.559 614.5,502.5C 607.195,501.733 600.529,499.4 594.5,495.5C 593.515,478.244 593.181,460.91 593.5,443.5C 599.695,438.91 606.695,436.243 614.5,435.5 Z"/></g>
<g><path style="opacity:1" fill="#76db00" d="M 295.5,437.5 C 322.309,436.808 335.142,449.808 334,476.5C 325.651,498.923 310.151,506.089 287.5,498C 274.056,489.941 268.556,478.108 271,462.5C 274.683,449.651 282.85,441.318 295.5,437.5 Z"/></g>
<g><path style="opacity:1" fill="#65b134" d="M 642.5,437.5 C 663.85,443.84 682.85,454.34 699.5,469C 682.778,483.362 663.778,493.528 642.5,499.5C 642.5,478.833 642.5,458.167 642.5,437.5 Z"/></g>
<g><path style="opacity:1" fill="#4e8f25" d="M 593.5,443.5 C 593.181,460.91 593.515,478.244 594.5,495.5C 582.823,488.995 573.157,480.162 565.5,469C 572.825,458.169 582.158,449.669 593.5,443.5 Z"/></g>
<g><path style="opacity:1" fill="#599e2c" d="M 459.5,498.5 C 457.512,518.806 456.845,539.473 457.5,560.5C 454.57,561.299 451.57,561.632 448.5,561.5C 447.5,561.5 446.5,561.5 445.5,561.5C 445.5,540.5 445.5,519.5 445.5,498.5C 446.479,496.855 447.812,495.521 449.5,494.5C 452.865,496.059 456.198,497.392 459.5,498.5 Z"/></g>
<g><path style="opacity:1" fill="#529427" d="M 445.5,498.5 C 445.5,519.5 445.5,540.5 445.5,561.5C 446.5,561.5 447.5,561.5 448.5,561.5C 446.708,562.309 444.708,562.809 442.5,563C 432.506,563.5 422.506,563.666 412.5,563.5C 417.451,538.596 428.451,516.93 445.5,498.5 Z"/></g>
<g><path style="opacity:1" fill="#60aa31" d="M 459.5,498.5 C 470.968,501.392 482.635,502.725 494.5,502.5C 489.321,517.72 487.155,533.386 488,549.5C 478.544,555.042 468.378,558.708 457.5,560.5C 456.845,539.473 457.512,518.806 459.5,498.5 Z"/></g>
<g><path style="opacity:1" fill="#264706" d="M 656.5,607.5 C 669.884,579.732 683.55,552.065 697.5,524.5C 697.376,523.893 697.043,523.56 696.5,523.5C 709.471,515.67 721.805,506.836 733.5,497C 737.369,493.466 740.869,489.633 744,485.5C 740.905,504.104 734.239,521.437 724,537.5C 705.394,564.606 682.894,587.939 656.5,607.5 Z"/></g>
<g><path style="opacity:1" fill="#529528" d="M 552.5,518.5 C 551.503,540.994 551.169,563.661 551.5,586.5C 531.753,565.732 526.586,541.732 536,514.5C 537.247,511.671 538.747,509.005 540.5,506.5C 544.854,510.188 548.854,514.188 552.5,518.5 Z"/></g>
<g><path style="opacity:1" fill="#294c05" d="M 696.5,523.5 C 697.043,523.56 697.376,523.893 697.5,524.5C 683.55,552.065 669.884,579.732 656.5,607.5C 649.358,614.501 641.692,620.167 633.5,624.5C 643.2,598.302 647.034,571.302 645,543.5C 663.134,539.289 680.301,532.623 696.5,523.5 Z"/></g>
<g><path style="opacity:1" fill="#5ba32e" d="M 552.5,518.5 C 558.857,523.198 565.19,527.865 571.5,532.5C 570.502,556.661 570.169,580.994 570.5,605.5C 563.146,600.146 556.812,593.812 551.5,586.5C 551.169,563.661 551.503,540.994 552.5,518.5 Z"/></g>
<g><path style="opacity:1" fill="#65b034" d="M 571.5,532.5 C 580.747,537.122 590.414,540.622 600.5,543C 604.613,569.837 600.946,595.67 589.5,620.5C 582.836,615.827 576.503,610.827 570.5,605.5C 570.169,580.994 570.502,556.661 571.5,532.5 Z"/></g>
<g><path style="opacity:1" fill="#322c29" d="M 368.5,558.5 C 362.156,579.016 368.489,593.849 387.5,603C 414.872,606.544 442.205,606.21 469.5,602C 480.782,599.351 491.615,595.518 502,590.5C 502.464,591.094 502.631,591.761 502.5,592.5C 473.167,612.5 443.833,632.5 414.5,652.5C 396.419,630.718 374.752,626.551 349.5,640C 338.015,652.651 326.015,664.818 313.5,676.5C 295.817,663.32 279.817,648.32 265.5,631.5C 299.202,606.464 333.535,582.13 368.5,558.5 Z"/></g>
<g><path style="opacity:1" fill="#36302c" d="M 502.5,592.5 C 509.68,603.362 517.68,613.695 526.5,623.5C 504.461,661.083 481.794,698.25 458.5,735C 442.835,733.895 427.502,730.895 412.5,726C 414.049,724.786 415.215,723.286 416,721.5C 426.359,698.119 425.859,675.119 414.5,652.5C 443.833,632.5 473.167,612.5 502.5,592.5 Z"/></g>
<g><path style="opacity:1" fill="#2f5305" d="M 559.5,651.5 C 564.482,654.807 569.482,658.141 574.5,661.5C 564.994,667.087 555.327,672.42 545.5,677.5C 544.479,676.998 544.312,676.332 545,675.5C 550.096,667.638 554.929,659.638 559.5,651.5 Z"/></g>
<g><path style="opacity:1" fill="#d4803a" d="M 303.5,784.5 C 302.505,773.012 302.172,761.345 302.5,749.5C 326.269,724.23 350.602,699.397 375.5,675C 376.167,674.333 376.833,674.333 377.5,675C 379.909,678.251 380.909,681.918 380.5,686C 380.752,692.354 379.252,698.188 376,703.5C 351.597,730.397 327.431,757.397 303.5,784.5 Z"/></g>
<g><path style="opacity:1" fill="#ac6224" d="M 206.5,759.5 C 205.185,768.402 205.185,777.402 206.5,786.5C 181.136,775.62 157.97,761.286 137,743.5C 132.767,734.865 134.934,728.365 143.5,724C 145.833,723.333 148.167,723.333 150.5,724C 159.481,729.495 168.148,735.495 176.5,742C 186.399,748.112 196.399,753.946 206.5,759.5 Z"/></g>
<g><path style="opacity:1" fill="#44841b" d="M 378.5,763.5 C 395.094,769.566 412.094,774.232 429.5,777.5C 430.213,779.776 430.713,782.109 431,784.5C 431.667,796.167 431.667,807.833 431,819.5C 429.35,829.774 426.017,839.44 421,848.5C 406.667,822.167 386.333,801.833 360,787.5C 359.333,786.833 359.333,786.167 360,785.5C 366.777,778.567 372.943,771.234 378.5,763.5 Z"/></g>
<g><path style="opacity:1" fill="#c1712f" d="M 302.5,749.5 C 302.172,761.345 302.505,773.012 303.5,784.5C 281.208,811.234 257.874,837.067 233.5,862C 231.922,863.094 230.255,863.928 228.5,864.5C 228.5,853.833 228.5,843.167 228.5,832.5C 236.623,822.539 244.956,812.706 253.5,803C 237.536,797.959 221.869,792.459 206.5,786.5C 205.185,777.402 205.185,768.402 206.5,759.5C 217.736,764.78 229.402,768.947 241.5,772C 256.133,775.238 270.133,773.572 283.5,767C 289.978,761.357 296.311,755.524 302.5,749.5 Z"/></g>
<g><path style="opacity:1" fill="#8f4b14" d="M 82.5,835.5 C 82.1945,844.917 82.5279,854.25 83.5,863.5C 69.7855,857.281 56.9521,849.614 45,840.5C 40.9706,833.379 42.1372,827.213 48.5,822C 53.6569,819.832 58.6569,820.165 63.5,823C 69.8985,827.19 76.2318,831.357 82.5,835.5 Z"/></g>
<g><path style="opacity:1" fill="#b06426" d="M 228.5,832.5 C 228.5,843.167 228.5,853.833 228.5,864.5C 218.443,872.361 207.109,877.861 194.5,881C 182.631,883.522 170.631,884.689 158.5,884.5C 157.791,883.596 156.791,883.263 155.5,883.5C 155.5,875.5 155.5,867.5 155.5,859.5C 160.695,859.821 165.695,859.487 170.5,858.5C 193.165,856.957 212.498,848.291 228.5,832.5 Z"/></g>
<g><path style="opacity:1" fill="#9c561b" d="M 82.5,835.5 C 100.894,845.132 120.228,852.299 140.5,857C 150.467,858.165 160.467,858.665 170.5,858.5C 165.695,859.487 160.695,859.821 155.5,859.5C 155.5,867.5 155.5,875.5 155.5,883.5C 156.791,883.263 157.791,883.596 158.5,884.5C 131.965,882.619 106.965,875.619 83.5,863.5C 82.5279,854.25 82.1945,844.917 82.5,835.5 Z"/></g>
</svg>
