<?xml version="1.0" encoding="UTF-8"?>
<!DOCTYPE svg PUBLIC "-//W3C//DTD SVG 1.1//EN" "http://www.w3.org/Graphics/SVG/1.1/DTD/svg11.dtd">
<svg xmlns="http://www.w3.org/2000/svg" version="1.1" width="539px" height="555px" style="shape-rendering:geometricPrecision; text-rendering:geometricPrecision; image-rendering:optimizeQuality; fill-rule:evenodd; clip-rule:evenodd" xmlns:xlink="http://www.w3.org/1999/xlink">
<g><path style="opacity:0.991" fill="#090909" d="M 14.5,-0.5 C 18.8333,-0.5 23.1667,-0.5 27.5,-0.5C 116.5,19.5534 203.5,46.3868 288.5,80C 327.379,95.6045 364.379,114.604 399.5,137C 424.459,152.954 445.959,172.788 464,196.5C 471.457,208.023 477.29,220.356 481.5,233.5C 497.167,241.667 512.833,249.833 528.5,258C 533.163,261.191 536.497,265.358 538.5,270.5C 538.5,274.833 538.5,279.167 538.5,283.5C 536.497,288.642 533.163,292.809 528.5,296C 512.254,304.373 496.088,312.873 480,321.5C 474.122,341.261 464.122,358.595 450,373.5C 423.534,399.97 393.701,421.804 360.5,439C 289.714,474.931 216.047,503.598 139.5,525C 102.299,535.799 64.966,545.632 27.5,554.5C 23.1667,554.5 18.8333,554.5 14.5,554.5C 7.16667,551.833 2.16667,546.833 -0.5,539.5C -0.5,535.167 -0.5,530.833 -0.5,526.5C 0.837327,523.009 2.83733,519.843 5.5,517C 72.1282,476.705 135.128,431.371 194.5,381C 214.126,363.878 231.793,345.045 247.5,324.5C 239.489,312.479 230.989,300.812 222,289.5C 216.853,279.745 217.52,270.412 224,261.5C 232.167,250.667 240.333,239.833 248.5,229C 236.573,214.402 223.906,200.402 210.5,187C 170.678,151.106 128.678,118.106 84.5,88C 58.677,70.2523 32.3437,53.2523 5.5,37C 2.83733,34.1574 0.837327,30.9907 -0.5,27.5C -0.5,23.1667 -0.5,18.8333 -0.5,14.5C 2.16667,7.16667 7.16667,2.16667 14.5,-0.5 Z"/></g>
<g><path style="opacity:1" fill="#877c08" d="M 193.5,91.5 C 192.508,98.6476 192.175,105.981 192.5,113.5C 175.011,100.19 157.345,87.023 139.5,74C 157.658,79.3306 175.658,85.1639 193.5,91.5 Z"/></g>
<g><path style="opacity:1" fill="#95890a" d="M 193.5,91.5 C 204.434,94.6461 215.101,98.3127 225.5,102.5C 225.5,115.5 225.5,128.5 225.5,141.5C 214.305,132.402 203.305,123.068 192.5,113.5C 192.175,105.981 192.508,98.6476 193.5,91.5 Z"/></g>
<g><path style="opacity:1" fill="#a2950b" d="M 225.5,102.5 C 237.221,106.07 248.555,110.403 259.5,115.5C 258.503,134.659 258.17,153.993 258.5,173.5C 247.473,162.806 236.473,152.139 225.5,141.5C 225.5,128.5 225.5,115.5 225.5,102.5 Z"/></g>
<g><path style="opacity:1" fill="#aa9d0c" d="M 259.5,115.5 C 265.485,117.267 271.152,119.6 276.5,122.5C 274.51,145.476 273.843,168.809 274.5,192.5C 269.196,186.192 263.863,179.858 258.5,173.5C 258.17,153.993 258.503,134.659 259.5,115.5 Z"/></g>
<g><path style="opacity:1" fill="#b1a30d" d="M 276.5,122.5 C 282.136,124.322 287.469,126.655 292.5,129.5C 291.502,156.662 291.169,183.995 291.5,211.5C 290.5,211.5 289.5,211.5 288.5,211.5C 284.077,204.989 279.411,198.655 274.5,192.5C 273.843,168.809 274.51,145.476 276.5,122.5 Z"/></g>
<g><path style="opacity:1" fill="#bcad0e" d="M 292.5,129.5 C 303.586,133.744 314.252,138.744 324.5,144.5C 322.511,166.475 321.844,188.808 322.5,211.5C 312.167,211.5 301.833,211.5 291.5,211.5C 291.169,183.995 291.502,156.662 292.5,129.5 Z"/></g>
<g><path style="opacity:1" fill="#c5b610" d="M 324.5,144.5 C 332.647,147.739 340.314,151.739 347.5,156.5C 346.503,174.659 346.17,192.992 346.5,211.5C 338.5,211.5 330.5,211.5 322.5,211.5C 321.844,188.808 322.511,166.475 324.5,144.5 Z"/></g>
<g><path style="opacity:1" fill="#ccbd10" d="M 347.5,156.5 C 353.367,159.596 359.033,162.929 364.5,166.5C 363.504,181.324 363.171,196.324 363.5,211.5C 357.833,211.5 352.167,211.5 346.5,211.5C 346.17,192.992 346.503,174.659 347.5,156.5 Z"/></g>
<g><path style="opacity:1" fill="#d4c411" d="M 364.5,166.5 C 372.405,170.751 379.738,175.751 386.5,181.5C 385.506,191.319 385.173,201.319 385.5,211.5C 378.167,211.5 370.833,211.5 363.5,211.5C 363.171,196.324 363.504,181.324 364.5,166.5 Z"/></g>
<g><path style="opacity:1" fill="#decd13" d="M 386.5,181.5 C 398.853,189.528 409.853,199.195 419.5,210.5C 408.346,211.495 397.012,211.828 385.5,211.5C 385.173,201.319 385.506,191.319 386.5,181.5 Z"/></g>
<g><path style="opacity:1" fill="#80770e" d="M 419.5,210.5 C 420.043,210.56 420.376,210.893 420.5,211.5C 376.335,212.831 332.335,212.831 288.5,211.5C 289.5,211.5 290.5,211.5 291.5,211.5C 301.833,211.5 312.167,211.5 322.5,211.5C 330.5,211.5 338.5,211.5 346.5,211.5C 352.167,211.5 357.833,211.5 363.5,211.5C 370.833,211.5 378.167,211.5 385.5,211.5C 397.012,211.828 408.346,211.495 419.5,210.5 Z"/></g>
<g><path style="opacity:0.6" fill="#242424" d="M 283.5,254.5 C 331.834,254.333 380.168,254.5 428.5,255C 442.5,262.333 456.5,269.667 470.5,277C 457.833,283.667 445.167,290.333 432.5,297C 382.163,297.833 331.83,297.667 281.5,296.5C 276.625,290.129 271.958,283.629 267.5,277C 272.714,269.4 278.048,261.9 283.5,254.5 Z"/></g>
<g><path style="opacity:1" fill="#4b460b" d="M 289.5,340.5 C 333.335,339.169 377.335,339.169 421.5,340.5C 421.376,341.107 421.043,341.44 420.5,341.5C 399.006,340.503 377.34,340.169 355.5,340.5C 349.5,340.5 343.5,340.5 337.5,340.5C 332.5,340.5 327.5,340.5 322.5,340.5C 317.5,340.5 312.5,340.5 307.5,340.5C 302.167,340.5 296.833,340.5 291.5,340.5C 290.833,340.5 290.167,340.5 289.5,340.5 Z"/></g>
<g><path style="opacity:1" fill="#b1a40d" d="M 289.5,340.5 C 290.167,340.5 290.833,340.5 291.5,340.5C 291.169,368.338 291.502,396.005 292.5,423.5C 288.123,426.018 283.456,428.018 278.5,429.5C 277.502,405.672 277.169,381.672 277.5,357.5C 281.532,351.81 285.532,346.143 289.5,340.5 Z"/></g>
<g><path style="opacity:1" fill="#b8aa0e" d="M 291.5,340.5 C 296.833,340.5 302.167,340.5 307.5,340.5C 307.5,365.833 307.5,391.167 307.5,416.5C 302.93,419.616 297.93,421.95 292.5,423.5C 291.502,396.005 291.169,368.338 291.5,340.5 Z"/></g>
<g><path style="opacity:1" fill="#beaf0f" d="M 307.5,340.5 C 312.5,340.5 317.5,340.5 322.5,340.5C 321.844,363.525 322.51,386.191 324.5,408.5C 319.117,411.529 313.45,414.196 307.5,416.5C 307.5,391.167 307.5,365.833 307.5,340.5 Z"/></g>
<g><path style="opacity:1" fill="#c4b50f" d="M 322.5,340.5 C 327.5,340.5 332.5,340.5 337.5,340.5C 336.845,360.861 337.512,380.861 339.5,400.5C 334.667,403.418 329.667,406.084 324.5,408.5C 322.51,386.191 321.844,363.525 322.5,340.5 Z"/></g>
<g><path style="opacity:1" fill="#cabb10" d="M 337.5,340.5 C 343.5,340.5 349.5,340.5 355.5,340.5C 354.848,357.534 355.515,374.2 357.5,390.5C 351.83,394.337 345.83,397.67 339.5,400.5C 337.512,380.861 336.845,360.861 337.5,340.5 Z"/></g>
<g><path style="opacity:1" fill="#d6c612" d="M 355.5,340.5 C 377.34,340.169 399.006,340.503 420.5,341.5C 402.123,361.21 381.123,377.544 357.5,390.5C 355.515,374.2 354.848,357.534 355.5,340.5 Z"/></g>
<g><path style="opacity:1" fill="#ab9e0c" d="M 277.5,357.5 C 277.169,381.672 277.502,405.672 278.5,429.5C 272.569,432.927 266.236,435.594 259.5,437.5C 258.503,418.341 258.17,399.007 258.5,379.5C 264.862,372.141 271.196,364.808 277.5,357.5 Z"/></g>
<g><path style="opacity:1" fill="#a2950b" d="M 258.5,379.5 C 258.17,399.007 258.503,418.341 259.5,437.5C 248.543,442.6 237.21,446.934 225.5,450.5C 225.5,437.5 225.5,424.5 225.5,411.5C 236.473,400.861 247.473,390.194 258.5,379.5 Z"/></g>
<g><path style="opacity:1" fill="#918609" d="M 225.5,411.5 C 225.5,424.5 225.5,437.5 225.5,450.5C 210.616,456.796 195.283,462.129 179.5,466.5C 179.5,460.833 179.5,455.167 179.5,449.5C 195.125,437.211 210.458,424.544 225.5,411.5 Z"/></g>
<g><path style="opacity:1" fill="#807608" d="M 179.5,449.5 C 179.5,455.167 179.5,460.833 179.5,466.5C 166.752,471.437 153.752,475.604 140.5,479C 153.66,469.334 166.66,459.501 179.5,449.5 Z"/></g>
</svg>
