<?xml version="1.0" encoding="UTF-8"?>
<!DOCTYPE svg PUBLIC "-//W3C//DTD SVG 1.1//EN" "http://www.w3.org/Graphics/SVG/1.1/DTD/svg11.dtd">
<svg xmlns="http://www.w3.org/2000/svg" version="1.1" width="499px" height="664px" style="shape-rendering:geometricPrecision; text-rendering:geometricPrecision; image-rendering:optimizeQuality; fill-rule:evenodd; clip-rule:evenodd" xmlns:xlink="http://www.w3.org/1999/xlink">
<g><path style="opacity:0.991" fill="#090909" d="M 292.5,-0.5 C 297.167,-0.5 301.833,-0.5 306.5,-0.5C 373.456,42.7417 425.289,99.7417 462,170.5C 482.459,213.024 494.626,257.691 498.5,304.5C 498.5,322.5 498.5,340.5 498.5,358.5C 491.214,439.717 461.381,511.383 409,573.5C 379.187,608.835 345.021,638.835 306.5,663.5C 301.833,663.5 297.167,663.5 292.5,663.5C 192.044,647.504 112.878,597.837 55,514.5C 23.4645,466.765 4.96448,414.431 -0.5,357.5C -0.5,340.167 -0.5,322.833 -0.5,305.5C 12.1499,196.997 63.4832,112.164 153.5,51C 196.022,23.4383 242.356,6.27162 292.5,-0.5 Z"/></g>
<g><path style="opacity:1" fill="#2c2c2c" d="M 282.5,53.5 C 286.182,53.3347 289.848,53.5014 293.5,54C 361.942,102.024 409.108,165.858 435,245.5C 463.487,363.895 436.487,467.561 354,556.5C 335.422,576.007 315.255,593.507 293.5,609C 278.845,608.39 264.512,605.723 250.5,601C 155.826,566.993 92.9928,502.16 62,406.5C 34.7879,289.808 66.2879,192.308 156.5,114C 193.699,83.9011 235.699,63.7344 282.5,53.5 Z"/></g>
<g><path style="opacity:1" fill="#0a0a0a" d="M 155.5,148.5 C 241.98,209.245 328.313,270.245 414.5,331.5C 328.421,392.623 242.254,453.623 156,514.5C 186.096,453.64 216.263,392.64 246.5,331.5C 216.414,270.329 186.081,209.329 155.5,148.5 Z"/></g>
<g><path style="opacity:1" fill="#fbed0f" d="M 241.5,248.5 C 280.783,275.785 319.783,303.452 358.5,331.5C 319.829,359.329 280.996,386.995 242,414.5C 254.897,386.702 268.397,359.035 282.5,331.5C 268.55,303.935 254.884,276.268 241.5,248.5 Z"/></g>
</svg>
