<?xml version="1.0" encoding="UTF-8"?>
<!DOCTYPE svg PUBLIC "-//W3C//DTD SVG 1.1//EN" "http://www.w3.org/Graphics/SVG/1.1/DTD/svg11.dtd">
<svg xmlns="http://www.w3.org/2000/svg" version="1.1" width="727px" height="715px" style="shape-rendering:geometricPrecision; text-rendering:geometricPrecision; image-rendering:optimizeQuality; fill-rule:evenodd; clip-rule:evenodd" xmlns:xlink="http://www.w3.org/1999/xlink">
<g><path style="opacity:0.995" fill="#090909" d="M 272.5,-0.5 C 274.833,-0.5 277.167,-0.5 279.5,-0.5C 309.329,17.8137 337.663,38.3137 364.5,61C 467.583,77.8673 558.583,119.867 637.5,187C 659.493,206.987 679.326,228.82 697,252.5C 706.696,268.34 716.53,284.006 726.5,299.5C 726.5,300.5 726.5,301.5 726.5,302.5C 708.882,300.413 691.215,298.747 673.5,297.5C 682.833,337.167 682.833,376.833 673.5,416.5C 691.215,415.253 708.882,413.587 726.5,411.5C 726.5,412.5 726.5,413.5 726.5,414.5C 716.191,429.766 706.358,445.432 697,461.5C 655.348,515.826 604.515,559.326 544.5,592C 487.854,622.104 427.854,642.438 364.5,653C 337.602,676.079 308.935,696.579 278.5,714.5C 276.5,714.5 274.5,714.5 272.5,714.5C 190.058,694.544 120.558,653.211 64,590.5C 56.6924,580.359 49.1924,570.359 41.5,560.5C 48.1557,556.505 55.1557,553.005 62.5,550C 26.2305,499.952 5.23048,444.119 -0.5,382.5C -0.5,365.5 -0.5,348.5 -0.5,331.5C 5.23048,269.881 26.2305,214.048 62.5,164C 55.1557,160.995 48.1557,157.495 41.5,153.5C 84.2048,93.6407 139.538,49.4741 207.5,21C 228.841,12.4972 250.508,5.33055 272.5,-0.5 Z"/></g>
<g><path style="opacity:1" fill="#4a6345" d="M 267.5,53.5 C 321.088,86.5795 366.254,128.913 403,180.5C 410.765,192.445 417.932,204.778 424.5,217.5C 422.235,218.647 419.902,218.814 417.5,218C 339.657,204.123 263.324,184.456 188.5,159C 167.112,151.706 146.112,143.54 125.5,134.5C 155.228,106.113 189.228,83.9466 227.5,68C 240.752,62.6411 254.085,57.8078 267.5,53.5 Z"/></g>
<g><path style="opacity:1" fill="#263323" d="M 427.5,129.5 C 500.385,150.28 564.051,187.113 618.5,240C 573.821,236.484 529.154,232.484 484.5,228C 470.705,191.878 451.705,159.045 427.5,129.5 Z"/></g>
<g><path style="opacity:1" fill="#263323" d="M 112.5,184.5 C 216.639,225.369 323.972,254.702 434.5,272.5C 450.476,329.128 450.476,385.795 434.5,442.5C 323.968,459.257 216.801,488.257 113,529.5C 55.057,455.123 38.057,372.123 62,280.5C 72.8508,245.122 89.6841,213.122 112.5,184.5 Z"/></g>
<g><path style="opacity:1" fill="#0a0a0a" d="M 128.5,212.5 C 159.479,226.653 191.145,239.153 223.5,250C 260.761,261.385 298.261,271.885 336,281.5C 353.167,306.667 370.333,331.833 387.5,357C 370.167,382.333 352.833,407.667 335.5,433C 264.322,448.837 195.489,471.67 129,501.5C 149.751,453.15 171.251,404.984 193.5,357C 171.404,308.979 149.737,260.812 128.5,212.5 Z"/></g>
<g><path style="opacity:1" fill="#780000" d="M 183.5,265.5 C 227.705,281.791 272.705,295.457 318.5,306.5C 329.963,323.264 341.296,340.097 352.5,357C 341.296,373.903 329.963,390.736 318.5,407.5C 273.544,418.563 229.21,431.897 185.5,447.5C 185.167,447 184.833,446.5 184.5,446C 197.833,416.333 211.167,386.667 224.5,357C 210.684,326.538 197.018,296.038 183.5,265.5 Z"/></g>
<g><path style="opacity:0.835" fill="#161d13" d="M 490.5,279.5 C 532.854,283.502 575.187,287.835 617.5,292.5C 633.497,335.46 633.497,378.46 617.5,421.5C 575.196,426.164 532.862,430.497 490.5,434.5C 499.785,382.824 499.785,331.157 490.5,279.5 Z"/></g>
<g><path style="opacity:1" fill="#263323" d="M 610.5,473.5 C 613.187,473.336 615.854,473.503 618.5,474C 564.563,526.541 501.229,563.208 428.5,584C 452.027,554.299 470.694,521.633 484.5,486C 526.704,482.374 568.704,478.208 610.5,473.5 Z"/></g>
<g><path style="opacity:1" fill="#4a6345" d="M 417.5,495.5 C 419.924,495.192 422.257,495.526 424.5,496.5C 409.116,525.946 390.282,552.946 368,577.5C 337.901,609.122 304.734,636.788 268.5,660.5C 214.146,644.704 166.48,617.704 125.5,579.5C 191.992,552.17 260.326,530.337 330.5,514C 359.52,507.324 388.52,501.157 417.5,495.5 Z"/></g>
</svg>
