<?xml version="1.0" encoding="UTF-8"?>
<!DOCTYPE svg PUBLIC "-//W3C//DTD SVG 1.1//EN" "http://www.w3.org/Graphics/SVG/1.1/DTD/svg11.dtd">
<svg xmlns="http://www.w3.org/2000/svg" version="1.1" width="621px" height="767px" style="shape-rendering:geometricPrecision; text-rendering:geometricPrecision; image-rendering:optimizeQuality; fill-rule:evenodd; clip-rule:evenodd" xmlns:xlink="http://www.w3.org/1999/xlink">
<g><path style="opacity:0.99" fill="#090909" d="M 382.5,-0.5 C 386.5,-0.5 390.5,-0.5 394.5,-0.5C 385.003,18.8554 387.17,36.8554 401,53.5C 405.167,57.6667 409.333,61.8333 413.5,66C 483.37,104.535 538.87,158.035 580,226.5C 602.711,267.458 616.211,311.125 620.5,357.5C 620.5,374.167 620.5,390.833 620.5,407.5C 614.458,469.461 592.958,525.461 556,575.5C 517.108,626.07 469.942,666.903 414.5,698C 400.812,708.205 392.312,721.705 389,738.5C 388.08,748.399 389.913,757.732 394.5,766.5C 390.5,766.5 386.5,766.5 382.5,766.5C 320.341,758.004 263.008,736.671 210.5,702.5C 237.86,702.051 264.527,697.718 290.5,689.5C 292.353,691.446 294.686,692.946 297.5,694C 311.965,699.599 326.632,704.599 341.5,709C 343.167,709.667 344.833,709.667 346.5,709C 350.106,701.623 354.106,694.456 358.5,687.5C 355.046,685.549 351.379,684.049 347.5,683C 340.508,681.057 333.508,679.224 326.5,677.5C 347.522,668.825 367.188,657.825 385.5,644.5C 392.187,646.948 399.187,648.115 406.5,648C 460.523,613.977 503.69,569.477 536,514.5C 571.822,446.61 578.989,375.944 557.5,302.5C 548.564,272.628 534.898,245.295 516.5,220.5C 486.737,178.568 450.07,144.068 406.5,117C 399.268,117.293 392.268,118.46 385.5,120.5C 367.146,107.156 347.479,96.1562 326.5,87.5C 337.407,84.7522 348.073,81.4189 358.5,77.5C 354.099,70.1243 349.766,62.7909 345.5,55.5C 326.729,60.4196 308.729,67.0862 291.5,75.5C 265.549,67.2863 238.882,62.953 211.5,62.5C 263.85,29.048 320.85,8.048 382.5,-0.5 Z"/></g>
<g><path style="opacity:1" fill="#916e00" d="M 326.5,87.5 C 315.121,82.7069 303.454,78.7069 291.5,75.5C 308.729,67.0862 326.729,60.4196 345.5,55.5C 349.766,62.7909 354.099,70.1243 358.5,77.5C 348.073,81.4189 337.407,84.7522 326.5,87.5 Z"/></g>
<g><path style="opacity:0.996" fill="#000000" d="M 211.5,62.5 C 238.882,62.953 265.549,67.2863 291.5,75.5C 303.454,78.7069 315.121,82.7069 326.5,87.5C 347.479,96.1562 367.146,107.156 385.5,120.5C 429.151,151.81 463.484,191.143 488.5,238.5C 502.541,268.287 512.541,299.287 518.5,331.5C 532.681,446.142 498.014,542.976 414.5,622C 404.958,629.715 395.291,637.215 385.5,644.5C 367.188,657.825 347.522,668.825 326.5,677.5C 314.71,682.097 302.71,686.097 290.5,689.5C 264.527,697.718 237.86,702.051 210.5,702.5C 135.643,703.934 68.31,682.434 8.5,638C 4.1179,634.701 1.1179,630.534 -0.5,625.5C -0.5,621.833 -0.5,618.167 -0.5,614.5C 4.15966,601.329 13.493,596.162 27.5,599C 52.569,608.98 78.569,614.814 105.5,616.5C 127.928,617.635 149.928,615.635 171.5,610.5C 181.427,608.269 191.094,605.269 200.5,601.5C 216.75,595.044 232.083,587.044 246.5,577.5C 321.072,524.767 355.572,452.434 350,360.5C 349.568,352.913 348.401,345.58 346.5,338.5C 340.963,307.772 329.63,279.439 312.5,253.5C 294.833,227.167 272.833,205.167 246.5,187.5C 231.989,177.662 216.656,169.329 200.5,162.5C 190.878,159.678 181.212,157.011 171.5,154.5C 149.774,148.863 127.774,147.196 105.5,149.5C 78.6384,149.908 52.6384,155.408 27.5,166C 13.9933,168.75 4.65993,163.916 -0.5,151.5C -0.5,147.167 -0.5,142.833 -0.5,138.5C 0.837327,135.009 2.83733,131.843 5.5,129C 66.2211,82.7055 134.888,60.5388 211.5,62.5 Z"/></g>
<g><path style="opacity:1" fill="#c76f01" d="M 285.5,118.5 C 274.061,124.388 262.728,130.554 251.5,137C 250.748,137.671 250.414,138.504 250.5,139.5C 222.189,124.396 192.189,114.063 160.5,108.5C 195.359,103.631 230.026,104.797 264.5,112C 271.863,113.417 278.863,115.584 285.5,118.5 Z"/></g>
<g><path style="opacity:1" fill="#cf7d01" d="M 285.5,118.5 C 314.038,126.769 340.038,139.769 363.5,157.5C 346.498,166.665 329.831,176.332 313.5,186.5C 294.464,168.154 273.464,152.488 250.5,139.5C 250.414,138.504 250.748,137.671 251.5,137C 262.728,130.554 274.061,124.388 285.5,118.5 Z"/></g>
<g><path style="opacity:0.992" fill="#090908" d="M 171.5,154.5 C 170.448,154.351 169.448,154.517 168.5,155C 119.327,199.149 85.1607,252.982 66,316.5C 50.7327,378.161 56.3994,437.827 83,495.5C 104.212,538.739 132.378,576.905 167.5,610C 168.793,610.49 170.127,610.657 171.5,610.5C 149.928,615.635 127.928,617.635 105.5,616.5C 69.7535,576.709 42.9202,531.376 25,480.5C -4.23706,383.496 8.09628,292.162 62,206.5C 74.7985,186.201 89.2985,167.201 105.5,149.5C 127.774,147.196 149.774,148.863 171.5,154.5 Z"/></g>
<g><path style="opacity:1" fill="#2a2523" d="M 516.5,220.5 C 506.916,226.079 497.582,232.079 488.5,238.5C 463.484,191.143 429.151,151.81 385.5,120.5C 392.268,118.46 399.268,117.293 406.5,117C 450.07,144.068 486.737,178.568 516.5,220.5 Z"/></g>
<g><path style="opacity:1" fill="#936f00" d="M 171.5,154.5 C 181.212,157.011 190.878,159.678 200.5,162.5C 200.631,163.239 200.464,163.906 200,164.5C 136.15,222.716 102.65,295.216 99.5,382C 101.314,456.415 126.814,521.248 176,576.5C 184.369,584.702 192.536,593.035 200.5,601.5C 191.094,605.269 181.427,608.269 171.5,610.5C 170.127,610.657 168.793,610.49 167.5,610C 132.378,576.905 104.212,538.739 83,495.5C 56.3994,437.827 50.7327,378.161 66,316.5C 85.1607,252.982 119.327,199.149 168.5,155C 169.448,154.517 170.448,154.351 171.5,154.5 Z"/></g>
<g><path style="opacity:1" fill="#090909" d="M 200.5,162.5 C 216.656,169.329 231.989,177.662 246.5,187.5C 190.44,233.605 158.44,292.939 150.5,365.5C 148.401,399.741 153.401,432.741 165.5,464.5C 182.434,509.363 209.434,547.03 246.5,577.5C 232.083,587.044 216.75,595.044 200.5,601.5C 192.536,593.035 184.369,584.702 176,576.5C 126.814,521.248 101.314,456.415 99.5,382C 102.65,295.216 136.15,222.716 200,164.5C 200.464,163.906 200.631,163.239 200.5,162.5 Z"/></g>
<g><path style="opacity:1" fill="#d48602" d="M 363.5,157.5 C 373.44,164.441 382.773,172.108 391.5,180.5C 372.539,190.314 353.872,200.647 335.5,211.5C 328.196,203.192 320.862,194.859 313.5,186.5C 329.831,176.332 346.498,166.665 363.5,157.5 Z"/></g>
<g><path style="opacity:1" fill="#d68b02" d="M 391.5,180.5 C 400.598,188.26 408.598,196.927 415.5,206.5C 414.883,206.389 414.383,206.056 414,205.5C 395.5,216 377,226.5 358.5,237C 356.561,237.908 355.561,239.408 355.5,241.5C 349.233,231.233 342.566,221.233 335.5,211.5C 353.872,200.647 372.539,190.314 391.5,180.5 Z"/></g>
<g><path style="opacity:1" fill="#282421" d="M 246.5,187.5 C 272.833,205.167 294.833,227.167 312.5,253.5C 258.471,290.843 204.471,328.177 150.5,365.5C 158.44,292.939 190.44,233.605 246.5,187.5 Z"/></g>
<g><path style="opacity:1" fill="#da9203" d="M 415.5,206.5 C 422.808,214.449 429.142,223.115 434.5,232.5C 414.861,243.655 395.194,254.821 375.5,266C 373.308,267.067 371.642,268.567 370.5,270.5C 365.787,260.742 360.787,251.076 355.5,241.5C 355.561,239.408 356.561,237.908 358.5,237C 377,226.5 395.5,216 414,205.5C 414.383,206.056 414.883,206.389 415.5,206.5 Z"/></g>
<g><path style="opacity:1" fill="#2f2926" d="M 516.5,220.5 C 534.898,245.295 548.564,272.628 557.5,302.5C 545.322,311.17 532.989,319.67 520.5,328C 519.177,328.816 518.511,329.983 518.5,331.5C 512.541,299.287 502.541,268.287 488.5,238.5C 497.582,232.079 506.916,226.079 516.5,220.5 Z"/></g>
<g><path style="opacity:1" fill="#dc9803" d="M 434.5,232.5 C 442.35,242.856 448.684,254.189 453.5,266.5C 430.861,279.488 408.194,292.488 385.5,305.5C 384.614,306.325 384.281,307.325 384.5,308.5C 380.439,295.693 375.772,283.026 370.5,270.5C 371.642,268.567 373.308,267.067 375.5,266C 395.194,254.821 414.861,243.655 434.5,232.5 Z"/></g>
<g><path style="opacity:1" fill="#2b2623" d="M 312.5,253.5 C 329.63,279.439 340.963,307.772 346.5,338.5C 334.267,346.109 322.601,354.443 311.5,363.5C 298.44,331.321 274.44,316.487 239.5,319C 206.721,327.054 188.721,347.887 185.5,381.5C 186.208,402.687 194.542,420.021 210.5,433.5C 195.22,443.45 180.22,453.784 165.5,464.5C 153.401,432.741 148.401,399.741 150.5,365.5C 204.471,328.177 258.471,290.843 312.5,253.5 Z"/></g>
<g><path style="opacity:1" fill="#df9f04" d="M 453.5,266.5 C 458.792,277.028 463.125,288.028 466.5,299.5C 465.883,299.389 465.383,299.056 465,298.5C 440.915,312.46 416.748,326.293 392.5,340C 391.748,340.671 391.414,341.504 391.5,342.5C 388.966,331.322 386.633,319.989 384.5,308.5C 384.281,307.325 384.614,306.325 385.5,305.5C 408.194,292.488 430.861,279.488 453.5,266.5 Z"/></g>
<g><path style="opacity:1" fill="#e2a404" d="M 466.5,299.5 C 470.257,310.197 472.924,321.197 474.5,332.5C 448.221,347.309 421.888,362.143 395.5,377C 394.858,381.601 394.191,386.101 393.5,390.5C 393.765,374.453 393.099,358.453 391.5,342.5C 391.414,341.504 391.748,340.671 392.5,340C 416.748,326.293 440.915,312.46 465,298.5C 465.383,299.056 465.883,299.389 466.5,299.5 Z"/></g>
<g><path style="opacity:1" fill="#090909" d="M 311.5,363.5 C 319.048,400.404 305.881,426.738 272,442.5C 249.905,449.844 229.405,446.844 210.5,433.5C 194.542,420.021 186.208,402.687 185.5,381.5C 188.721,347.887 206.721,327.054 239.5,319C 274.44,316.487 298.44,331.321 311.5,363.5 Z"/></g>
<g><path style="opacity:1" fill="#e4aa05" d="M 474.5,332.5 C 479.097,353.987 480.43,375.654 478.5,397.5C 478.666,387.828 478.5,378.161 478,368.5C 449.057,385.052 420.224,401.719 391.5,418.5C 392.918,409.233 393.585,399.899 393.5,390.5C 394.191,386.101 394.858,381.601 395.5,377C 421.888,362.143 448.221,347.309 474.5,332.5 Z"/></g>
<g><path style="opacity:1" fill="#2f2a27" d="M 346.5,338.5 C 348.401,345.58 349.568,352.913 350,360.5C 355.572,452.434 321.072,524.767 246.5,577.5C 209.434,547.03 182.434,509.363 165.5,464.5C 180.22,453.784 195.22,443.45 210.5,433.5C 229.405,446.844 249.905,449.844 272,442.5C 305.881,426.738 319.048,400.404 311.5,363.5C 322.601,354.443 334.267,346.109 346.5,338.5 Z"/></g>
<g><path style="opacity:1" fill="#b08500" d="M 242.5,350.5 C 261.667,348.524 274.5,356.524 281,374.5C 283.864,394.614 275.698,407.781 256.5,414C 235.609,416.109 222.776,406.942 218,386.5C 217.325,368.362 225.492,356.362 242.5,350.5 Z"/></g>
<g><path style="opacity:1" fill="#e8b105" d="M 478.5,397.5 C 478.666,402.179 478.499,406.845 478,411.5C 477.79,413.058 477.29,414.391 476.5,415.5C 444.078,432.9 411.745,451.233 379.5,470.5C 384.767,453.434 388.767,436.1 391.5,418.5C 420.224,401.719 449.057,385.052 478,368.5C 478.5,378.161 478.666,387.828 478.5,397.5 Z"/></g>
<g><path style="opacity:1" fill="#ebb706" d="M 476.5,415.5 C 475.691,431.38 472.691,446.713 467.5,461.5C 467.649,460.448 467.483,459.448 467,458.5C 430.851,479.823 394.351,500.49 357.5,520.5C 365.918,504.329 373.251,487.662 379.5,470.5C 411.745,451.233 444.078,432.9 476.5,415.5 Z"/></g>
<g><path style="opacity:1" fill="#352f2b" d="M 557.5,302.5 C 578.989,375.944 571.822,446.61 536,514.5C 503.69,569.477 460.523,613.977 406.5,648C 399.187,648.115 392.187,646.948 385.5,644.5C 395.291,637.215 404.958,629.715 414.5,622C 498.014,542.976 532.681,446.142 518.5,331.5C 518.511,329.983 519.177,328.816 520.5,328C 532.989,319.67 545.322,311.17 557.5,302.5 Z"/></g>
<g><path style="opacity:1" fill="#eebd06" d="M 467.5,461.5 C 462.728,478.697 456.061,495.03 447.5,510.5C 447.631,509.761 447.464,509.094 447,508.5C 396.356,537.903 345.523,566.903 294.5,595.5C 319.548,573.795 340.548,548.795 357.5,520.5C 394.351,500.49 430.851,479.823 467,458.5C 467.483,459.448 467.649,460.448 467.5,461.5 Z"/></g>
<g><path style="opacity:1" fill="#f0c307" d="M 447.5,510.5 C 406.6,586.491 343.933,634.325 259.5,654C 227.971,659.975 196.304,660.975 164.5,657C 164.167,656.667 163.833,656.333 163.5,656C 212.596,647.049 256.262,626.883 294.5,595.5C 345.523,566.903 396.356,537.903 447,508.5C 447.464,509.094 447.631,509.761 447.5,510.5 Z"/></g>
<g><path style="opacity:1" fill="#916e00" d="M 326.5,677.5 C 333.508,679.224 340.508,681.057 347.5,683C 351.379,684.049 355.046,685.549 358.5,687.5C 354.106,694.456 350.106,701.623 346.5,709C 344.833,709.667 343.167,709.667 341.5,709C 326.632,704.599 311.965,699.599 297.5,694C 294.686,692.946 292.353,691.446 290.5,689.5C 302.71,686.097 314.71,682.097 326.5,677.5 Z"/></g>
</svg>
