<?xml version="1.0" encoding="UTF-8"?>
<!DOCTYPE svg PUBLIC "-//W3C//DTD SVG 1.1//EN" "http://www.w3.org/Graphics/SVG/1.1/DTD/svg11.dtd">
<svg xmlns="http://www.w3.org/2000/svg" version="1.1" width="509px" height="668px" style="shape-rendering:geometricPrecision; text-rendering:geometricPrecision; image-rendering:optimizeQuality; fill-rule:evenodd; clip-rule:evenodd" xmlns:xlink="http://www.w3.org/1999/xlink">
<g><path style="opacity:0.992" fill="#090909" d="M 257.5,-0.5 C 271.5,-0.5 285.5,-0.5 299.5,-0.5C 323.76,0.642616 345.094,9.14262 363.5,25C 399.158,63.3107 430.992,104.477 459,148.5C 469.489,165.479 477.822,183.479 484,202.5C 493.935,246.995 502.101,291.661 508.5,336.5C 508.5,351.833 508.5,367.167 508.5,382.5C 507.234,407.744 502.4,432.41 494,456.5C 489.842,465.485 485.175,474.152 480,482.5C 466.753,501.326 453.753,520.326 441,539.5C 428.333,562.167 415.667,584.833 403,607.5C 385.808,638.203 360.308,658.203 326.5,667.5C 316.833,667.5 307.167,667.5 297.5,667.5C 259.399,661.247 221.399,653.747 183.5,645C 163.635,636.121 145.635,624.454 129.5,610C 104.325,584.824 79.8247,558.991 56,532.5C 39.4853,508.794 27.8186,482.794 21,454.5C 10.1485,416.707 2.98179,378.373 -0.5,339.5C -0.5,323.833 -0.5,308.167 -0.5,292.5C 2.51395,275.619 7.68061,259.285 15,243.5C 28.6667,217.5 42.3333,191.5 56,165.5C 63.3419,140.536 75.3419,118.203 92,98.5C 122.249,69.2356 155.083,43.4023 190.5,21C 211.615,9.6458 233.948,2.47913 257.5,-0.5 Z"/></g>
<g><path style="opacity:1" fill="#393321" d="M 266.5,53.5 C 284.106,52.9113 301.44,54.7446 318.5,59C 321.661,60.4131 324.661,62.0797 327.5,64C 337.068,72.8981 345.901,82.3981 354,92.5C 365.954,108.122 378.287,123.456 391,138.5C 402.833,156.163 414.167,174.163 425,192.5C 429.828,201.824 433.828,211.49 437,221.5C 446.285,262.825 453.618,304.492 459,346.5C 459.087,369.615 457.42,392.615 454,415.5C 451.735,425.698 448.068,435.364 443,444.5C 428.086,465.994 413.419,487.66 399,509.5C 384.733,535.424 370.067,561.091 355,586.5C 336.839,611.331 313.006,619.164 283.5,610C 254.669,604.767 226.002,598.767 197.5,592C 186.022,586.179 175.355,579.179 165.5,571C 137.186,544.691 111.019,516.524 87,486.5C 81.8331,476.502 77.4998,466.168 74,455.5C 62.1362,418.318 54.1362,380.318 50,341.5C 48.7784,328.184 48.4451,314.85 49,301.5C 52.5181,283.791 58.8514,267.125 68,251.5C 85.9322,221.968 100.932,190.968 113,158.5C 122.677,142.489 134.844,128.656 149.5,117C 169.142,101.513 189.142,86.5134 209.5,72C 227.235,61.4759 246.235,55.3093 266.5,53.5 Z"/></g>
<g><path style="opacity:1" fill="#201c13" d="M 250.5,92.5 C 271.156,89.5834 290.156,93.7501 307.5,105C 329.726,122.8 334.893,144.633 323,170.5C 316.319,180.772 306.819,186.939 294.5,189C 255.825,192.091 231.658,174.925 222,137.5C 218.43,113.933 227.93,98.9326 250.5,92.5 Z"/></g>
<g><path style="opacity:1" fill="#201c13" d="M 178.5,158.5 C 184.544,157.679 189.377,159.679 193,164.5C 199.934,175.108 198.767,184.608 189.5,193C 181.104,198.612 173.938,197.445 168,189.5C 162.418,176.013 165.918,165.68 178.5,158.5 Z"/></g>
<g><path style="opacity:1" fill="#201c13" d="M 368.5,178.5 C 379.485,176.654 387.985,180.321 394,189.5C 395.21,205.303 387.876,214.303 372,216.5C 355.603,213.04 350.937,203.706 358,188.5C 360.738,184.26 364.238,180.926 368.5,178.5 Z"/></g>
<g><path style="opacity:1" fill="#0b0b0a" d="M 304.5,213.5 C 327.107,212.054 345.607,220.054 360,237.5C 365.889,245.057 371.389,252.89 376.5,261C 375.328,261.419 374.328,262.085 373.5,263C 375.18,263.034 376.68,263.201 378,263.5C 384.835,275.174 392.168,286.507 400,297.5C 409.271,314.762 410.938,332.762 405,351.5C 399.224,376.046 388.89,398.38 374,418.5C 351.612,440.52 324.612,452.187 293,453.5C 264.678,452.181 245.012,438.514 234,412.5C 225.434,392.339 221.767,371.339 223,349.5C 225.537,329.223 227.537,308.89 229,288.5C 236.798,245.868 261.964,220.868 304.5,213.5 Z"/></g>
<g><path style="opacity:1" fill="#fdef0f" d="M 304.5,247.5 C 313.363,246.106 321.363,247.94 328.5,253C 332.369,256.534 335.869,260.367 339,264.5C 350.271,283.433 361.938,302.099 374,320.5C 374.667,326.5 374.667,332.5 374,338.5C 369.389,357.681 362.055,375.681 352,392.5C 341.712,405.073 328.546,413.239 312.5,417C 303.307,419.393 293.974,420.06 284.5,419C 278.179,416.674 273.013,412.84 269,407.5C 260.427,392.675 256.26,376.675 256.5,359.5C 258.592,339.54 260.092,319.54 261,299.5C 262.777,271.244 277.277,253.911 304.5,247.5 Z"/></g>
<g><path style="opacity:1" fill="#201c13" d="M 170.5,252.5 C 183.017,252.01 192.184,257.344 198,268.5C 206.233,285.036 206.566,301.703 199,318.5C 185.511,335.778 171.844,335.778 158,318.5C 148.083,305.649 145.083,291.315 149,275.5C 153.297,265.04 160.463,257.373 170.5,252.5 Z"/></g>
<g><path style="opacity:1" fill="#201c13" d="M 80.5,301.5 C 86.5092,301.334 92.5092,301.501 98.5,302C 105.368,303.341 110.201,307.175 113,313.5C 113.833,320.686 110.666,325.186 103.5,327C 92.1724,329.887 82.6724,327.054 75,318.5C 70.5598,310.728 72.3931,305.062 80.5,301.5 Z"/></g>
<g><path style="opacity:1" fill="#201c13" d="M 154.5,411.5 C 172.431,409.974 187.597,415.641 200,428.5C 207.694,444.429 207.027,460.096 198,475.5C 186.514,487.893 172.681,491.393 156.5,486C 129.055,473.959 120.889,454.126 132,426.5C 137.626,418.609 145.126,413.609 154.5,411.5 Z"/></g>
<g><path style="opacity:1" fill="#201c13" d="M 337.5,477.5 C 348.174,476.659 355.341,481.326 359,491.5C 360.516,500.957 359.183,509.957 355,518.5C 350.215,523.936 344.715,524.77 338.5,521C 329.699,512.317 326.533,501.817 329,489.5C 330.147,484.204 332.98,480.204 337.5,477.5 Z"/></g>
<g><path style="opacity:1" fill="#201c13" d="M 233.5,521.5 C 251.94,521.108 260.106,530.108 258,548.5C 250.411,560.702 239.578,564.868 225.5,561C 210.435,550.583 209.768,539.25 223.5,527C 226.767,524.87 230.1,523.037 233.5,521.5 Z"/></g>
</svg>
