<?xml version="1.0" encoding="UTF-8"?>
<!DOCTYPE svg PUBLIC "-//W3C//DTD SVG 1.1//EN" "http://www.w3.org/Graphics/SVG/1.1/DTD/svg11.dtd">
<svg xmlns="http://www.w3.org/2000/svg" version="1.1" width="330px" height="547px" style="shape-rendering:geometricPrecision; text-rendering:geometricPrecision; image-rendering:optimizeQuality; fill-rule:evenodd; clip-rule:evenodd" xmlns:xlink="http://www.w3.org/1999/xlink">
<g><path style="opacity:0.99" fill="#090809" d="M -0.5,-0.5 C 0.5,-0.5 1.5,-0.5 2.5,-0.5C 20.8718,7.1291 39.5385,14.2958 58.5,21C 97.2303,37.1836 132.897,58.1836 165.5,84C 190.25,104.068 209.75,128.234 224,156.5C 226.898,162.964 229.231,169.63 231,176.5C 263.398,208.734 296.232,240.4 329.5,271.5C 329.5,272.5 329.5,273.5 329.5,274.5C 296.232,305.6 263.398,337.266 231,369.5C 223.735,393.039 212.068,414.039 196,432.5C 167.466,462.381 134.966,486.881 98.5,506C 85.4091,512.879 72.0758,519.212 58.5,525C 39.5385,531.704 20.8718,538.871 2.5,546.5C 1.5,546.5 0.5,546.5 -0.5,546.5C -0.5,545.833 -0.5,545.167 -0.5,544.5C 30.289,488.573 54.789,429.906 73,368.5C 77.6532,351.568 81.1532,334.401 83.5,317C 83.1667,315.833 82.8333,314.667 82.5,313.5C 57.6731,300.254 33.0064,286.754 8.5,273C 33.0064,259.246 57.6731,245.746 82.5,232.5C 82.8333,231.333 83.1667,230.167 83.5,229C 77.6501,191.434 67.8168,154.934 54,119.5C 38.2141,78.9365 20.0475,39.6031 -0.5,1.5C -0.5,0.833333 -0.5,0.166667 -0.5,-0.5 Z"/></g>
<g><path style="opacity:1" fill="#350035" d="M 119.5,104.5 C 119.5,130.5 119.5,156.5 119.5,182.5C 110.529,149.256 99.5294,116.589 86.5,84.5C 86.8333,84.1667 87.1667,83.8333 87.5,83.5C 98.7482,89.7733 109.415,96.7733 119.5,104.5 Z"/></g>
<g><path style="opacity:1" fill="#3b003b" d="M 119.5,104.5 C 123.025,105.759 126.025,107.759 128.5,110.5C 127.167,146.833 127.167,183.167 128.5,219.5C 127.791,220.404 126.791,220.737 125.5,220.5C 123.888,207.775 121.888,195.108 119.5,182.5C 119.5,156.5 119.5,130.5 119.5,104.5 Z"/></g>
<g><path style="opacity:1" fill="#410041" d="M 128.5,110.5 C 131.81,112.482 134.81,114.815 137.5,117.5C 136.502,150.329 136.168,183.329 136.5,216.5C 134.11,218.02 131.443,219.02 128.5,219.5C 127.167,183.167 127.167,146.833 128.5,110.5 Z"/></g>
<g><path style="opacity:1" fill="#470047" d="M 137.5,117.5 C 140.192,119.862 142.859,122.196 145.5,124.5C 144.833,138.996 144.5,153.663 144.5,168.5C 144.501,183.516 145.167,198.182 146.5,212.5C 143.46,214.346 140.127,215.679 136.5,216.5C 136.168,183.329 136.502,150.329 137.5,117.5 Z"/></g>
<g><path style="opacity:1" fill="#4d004d" d="M 145.5,124.5 C 149.167,127.5 152.5,130.833 155.5,134.5C 154.833,146.662 154.5,158.995 154.5,171.5C 154.501,184.185 155.168,196.519 156.5,208.5C 153.46,210.346 150.127,211.679 146.5,212.5C 145.167,198.182 144.501,183.516 144.5,168.5C 144.5,153.663 144.833,138.996 145.5,124.5 Z"/></g>
<g><path style="opacity:1" fill="#530053" d="M 155.5,134.5 C 158.5,136.833 161.167,139.5 163.5,142.5C 162.167,163.5 162.167,184.5 163.5,205.5C 161.491,207.065 159.157,208.065 156.5,208.5C 155.168,196.519 154.501,184.185 154.5,171.5C 154.5,158.995 154.833,146.662 155.5,134.5 Z"/></g>
<g><path style="opacity:1" fill="#590059" d="M 163.5,142.5 C 166.975,146.104 169.975,150.104 172.5,154.5C 171.504,170.325 171.17,186.325 171.5,202.5C 169.11,204.02 166.443,205.02 163.5,205.5C 162.167,184.5 162.167,163.5 163.5,142.5 Z"/></g>
<g><path style="opacity:1" fill="#600060" d="M 172.5,154.5 C 181.352,165.674 187.352,178.341 190.5,192.5C 190.167,193.5 189.833,194.5 189.5,195.5C 183.634,198.232 177.634,200.566 171.5,202.5C 171.17,186.325 171.504,170.325 172.5,154.5 Z"/></g>
<g><path style="opacity:0.6" fill="#242424" d="M 221.5,228.5 C 237.29,242.789 252.623,257.622 267.5,273C 252.66,288.174 237.493,303.007 222,317.5C 185.238,302.537 148.405,287.704 111.5,273C 148.369,258.39 185.035,243.556 221.5,228.5 Z"/></g>
<g><path style="opacity:1" fill="#3a003a" d="M 128.5,326.5 C 127.167,362.833 127.167,399.167 128.5,435.5C 126.025,438.241 123.025,440.241 119.5,441.5C 119.5,415.167 119.5,388.833 119.5,362.5C 121.872,350.23 123.872,337.897 125.5,325.5C 126.791,325.263 127.791,325.596 128.5,326.5 Z"/></g>
<g><path style="opacity:1" fill="#410041" d="M 128.5,326.5 C 131.443,326.98 134.11,327.98 136.5,329.5C 136.168,362.671 136.502,395.671 137.5,428.5C 134.81,431.185 131.81,433.518 128.5,435.5C 127.167,399.167 127.167,362.833 128.5,326.5 Z"/></g>
<g><path style="opacity:1" fill="#470047" d="M 136.5,329.5 C 140.127,330.321 143.46,331.654 146.5,333.5C 145.167,347.818 144.501,362.484 144.5,377.5C 144.5,392.337 144.833,407.004 145.5,421.5C 142.859,423.804 140.192,426.138 137.5,428.5C 136.502,395.671 136.168,362.671 136.5,329.5 Z"/></g>
<g><path style="opacity:1" fill="#4d004d" d="M 146.5,333.5 C 150.127,334.321 153.46,335.654 156.5,337.5C 155.168,349.481 154.501,361.815 154.5,374.5C 154.5,387.005 154.833,399.338 155.5,411.5C 152.5,415.167 149.167,418.5 145.5,421.5C 144.833,407.004 144.5,392.337 144.5,377.5C 144.501,362.484 145.167,347.818 146.5,333.5 Z"/></g>
<g><path style="opacity:1" fill="#530053" d="M 156.5,337.5 C 159.157,337.935 161.491,338.935 163.5,340.5C 162.167,361.5 162.167,382.5 163.5,403.5C 161.167,406.5 158.5,409.167 155.5,411.5C 154.833,399.338 154.5,387.005 154.5,374.5C 154.501,361.815 155.168,349.481 156.5,337.5 Z"/></g>
<g><path style="opacity:1" fill="#590059" d="M 163.5,340.5 C 166.443,340.98 169.11,341.98 171.5,343.5C 171.17,359.675 171.504,375.675 172.5,391.5C 169.987,395.858 166.987,399.858 163.5,403.5C 162.167,382.5 162.167,361.5 163.5,340.5 Z"/></g>
<g><path style="opacity:1" fill="#600060" d="M 171.5,343.5 C 177.634,345.434 183.634,347.768 189.5,350.5C 189.833,351.5 190.167,352.5 190.5,353.5C 187.149,367.531 181.149,380.197 172.5,391.5C 171.504,375.675 171.17,359.675 171.5,343.5 Z"/></g>
<g><path style="opacity:1" fill="#350035" d="M 119.5,362.5 C 119.5,388.833 119.5,415.167 119.5,441.5C 109.415,449.227 98.7482,456.227 87.5,462.5C 87.1667,462.167 86.8333,461.833 86.5,461.5C 99.732,429.137 110.732,396.137 119.5,362.5 Z"/></g>
</svg>
