<?xml version="1.0" encoding="UTF-8"?>
<!DOCTYPE svg PUBLIC "-//W3C//DTD SVG 1.1//EN" "http://www.w3.org/Graphics/SVG/1.1/DTD/svg11.dtd">
<svg xmlns="http://www.w3.org/2000/svg" version="1.1" width="342px" height="519px" style="shape-rendering:geometricPrecision; text-rendering:geometricPrecision; image-rendering:optimizeQuality; fill-rule:evenodd; clip-rule:evenodd" xmlns:xlink="http://www.w3.org/1999/xlink">
<g><path style="opacity:0.987" fill="#040303" d="M 20.5,-0.5 C 33.5,-0.5 46.5,-0.5 59.5,-0.5C 146.616,8.47125 218.783,45.8046 276,111.5C 288.95,127.064 297.95,144.731 303,164.5C 303.865,173.264 303.365,181.93 301.5,190.5C 292.639,203.024 281.306,212.691 267.5,219.5C 257.925,223.466 247.925,225.632 237.5,226C 222.837,226.5 208.17,226.667 193.5,226.5C 172.066,227.308 152.733,221.308 135.5,208.5C 124.796,199.108 117.629,187.441 114,173.5C 109.608,152.071 107.608,130.404 108,108.5C 107.194,105.554 105.861,102.888 104,100.5C 95.6969,91.1143 86.1969,83.2809 75.5,77C 53.958,65.7291 32.2913,54.7291 10.5,44C 4.95706,39.9894 1.29039,34.8227 -0.5,28.5C -0.5,24.5 -0.5,20.5 -0.5,16.5C 3.82316,7.50866 10.8232,1.84199 20.5,-0.5 Z"/></g>
<g><path style="opacity:1" fill="#470200" d="M 175.5,82.5 C 174.613,115.237 174.28,148.237 174.5,181.5C 164.481,178.981 158.315,172.647 156,162.5C 152.276,142.354 150.609,122.021 151,101.5C 146.375,83.7355 136.875,69.2355 122.5,58C 141.404,63.4516 159.071,71.6182 175.5,82.5 Z"/></g>
<g><path style="opacity:1" fill="#4d0200" d="M 175.5,82.5 C 187.671,89.3409 199.004,97.3409 209.5,106.5C 208.502,131.995 208.169,157.661 208.5,183.5C 199.161,183.666 189.827,183.5 180.5,183C 178.414,182.685 176.414,182.185 174.5,181.5C 174.28,148.237 174.613,115.237 175.5,82.5 Z"/></g>
<g><path style="opacity:1" fill="#540200" d="M 209.5,106.5 C 214.627,110.455 219.627,114.622 224.5,119C 229.004,124.336 233.671,129.503 238.5,134.5C 237.504,150.325 237.17,166.325 237.5,182.5C 227.916,183.473 218.25,183.806 208.5,183.5C 208.169,157.661 208.502,131.995 209.5,106.5 Z"/></g>
<g><path style="opacity:1" fill="#580200" d="M 238.5,134.5 C 248.264,145.292 255.597,157.625 260.5,171.5C 254.924,179.119 247.257,182.785 237.5,182.5C 237.17,166.325 237.504,150.325 238.5,134.5 Z"/></g>
<g><path style="opacity:0.988" fill="#090909" d="M 301.5,190.5 C 321.303,205.461 334.636,224.795 341.5,248.5C 341.5,255.833 341.5,263.167 341.5,270.5C 334.531,293.829 321.198,312.829 301.5,327.5C 292.639,314.976 281.306,305.309 267.5,298.5C 278.834,290.666 288.334,281 296,269.5C 299.265,262.805 299.265,256.139 296,249.5C 288.692,237.36 279.192,227.36 267.5,219.5C 281.306,212.691 292.639,203.024 301.5,190.5 Z"/></g>
<g><path style="opacity:0.988" fill="#090909" d="M 135.5,208.5 C 152.733,221.308 172.066,227.308 193.5,226.5C 189.5,226.5 185.5,226.5 181.5,226.5C 184.091,248.156 184.091,269.822 181.5,291.5C 185.167,291.5 188.833,291.5 192.5,291.5C 175.643,291.213 159.643,295.046 144.5,303C 141.577,305.045 138.743,307.212 136,309.5C 135.601,309.272 135.435,308.938 135.5,308.5C 137.898,291.914 139.565,275.247 140.5,258.5C 139.565,241.753 137.898,225.086 135.5,208.5 Z"/></g>
<g><path style="opacity:0.6" fill="#242424" d="M 267.5,219.5 C 279.192,227.36 288.692,237.36 296,249.5C 299.265,256.139 299.265,262.805 296,269.5C 288.334,281 278.834,290.666 267.5,298.5C 258.868,294.925 249.868,292.759 240.5,292C 224.503,291.5 208.503,291.333 192.5,291.5C 188.833,291.5 185.167,291.5 181.5,291.5C 184.091,269.822 184.091,248.156 181.5,226.5C 185.5,226.5 189.5,226.5 193.5,226.5C 208.17,226.667 222.837,226.5 237.5,226C 247.925,225.632 257.925,223.466 267.5,219.5 Z"/></g>
<g><path style="opacity:0.987" fill="#040303" d="M 192.5,291.5 C 208.503,291.333 224.503,291.5 240.5,292C 249.868,292.759 258.868,294.925 267.5,298.5C 281.306,305.309 292.639,314.976 301.5,327.5C 305.828,347.87 302.328,366.87 291,384.5C 267.153,421.333 236.32,450.833 198.5,473C 155.404,498.31 109.071,513.477 59.5,518.5C 46.5,518.5 33.5,518.5 20.5,518.5C 10.8232,516.158 3.82316,510.491 -0.5,501.5C -0.5,497.5 -0.5,493.5 -0.5,489.5C 1.29039,483.177 4.95706,478.011 10.5,474C 32.2913,463.271 53.958,452.271 75.5,441C 86.1969,434.719 95.6969,426.886 104,417.5C 105.861,415.112 107.194,412.446 108,409.5C 107.608,387.596 109.608,365.929 114,344.5C 117.868,330.414 125.035,318.414 135.5,308.5C 135.435,308.938 135.601,309.272 136,309.5C 138.743,307.212 141.577,305.045 144.5,303C 159.643,295.046 175.643,291.213 192.5,291.5 Z"/></g>
<g><path style="opacity:1" fill="#4d0200" d="M 208.5,334.5 C 208.169,360.339 208.502,386.005 209.5,411.5C 199.004,420.659 187.671,428.659 175.5,435.5C 174.613,402.763 174.28,369.763 174.5,336.5C 176.414,335.815 178.414,335.315 180.5,335C 189.827,334.5 199.161,334.334 208.5,334.5 Z"/></g>
<g><path style="opacity:1" fill="#540200" d="M 208.5,334.5 C 219.014,334.172 229.347,334.506 239.5,335.5C 238.169,343.138 237.502,351.138 237.5,359.5C 237.5,367.674 237.834,375.674 238.5,383.5C 233.671,388.497 229.004,393.664 224.5,399C 219.627,403.378 214.627,407.545 209.5,411.5C 208.502,386.005 208.169,360.339 208.5,334.5 Z"/></g>
<g><path style="opacity:1" fill="#580200" d="M 239.5,335.5 C 248.202,335.851 255.202,339.351 260.5,346C 255.585,360.009 248.251,372.509 238.5,383.5C 237.834,375.674 237.5,367.674 237.5,359.5C 237.502,351.138 238.169,343.138 239.5,335.5 Z"/></g>
<g><path style="opacity:1" fill="#470200" d="M 174.5,336.5 C 174.28,369.763 174.613,402.763 175.5,435.5C 166.811,441.514 157.477,446.514 147.5,450.5C 146.509,444.021 146.176,437.354 146.5,430.5C 148.506,424.98 150.006,419.314 151,413.5C 150.53,393.627 152.197,373.961 156,354.5C 158.748,344.918 164.915,338.918 174.5,336.5 Z"/></g>
<g><path style="opacity:1" fill="#400200" d="M 146.5,430.5 C 146.176,437.354 146.509,444.021 147.5,450.5C 139.571,454.754 131.238,457.92 122.5,460C 132.576,451.767 140.576,441.934 146.5,430.5 Z"/></g>
</svg>
