<?xml version="1.0" encoding="UTF-8"?>
<!DOCTYPE svg PUBLIC "-//W3C//DTD SVG 1.1//EN" "http://www.w3.org/Graphics/SVG/1.1/DTD/svg11.dtd">
<svg xmlns="http://www.w3.org/2000/svg" version="1.1" width="529px" height="576px" style="shape-rendering:geometricPrecision; text-rendering:geometricPrecision; image-rendering:optimizeQuality; fill-rule:evenodd; clip-rule:evenodd" xmlns:xlink="http://www.w3.org/1999/xlink">
<g><path style="opacity:0.989" fill="#080909" d="M 14.5,-0.5 C 18.8333,-0.5 23.1667,-0.5 27.5,-0.5C 164.633,53.8894 301.966,108.056 439.5,162C 450.114,170.653 452.28,181.153 446,193.5C 441.403,197.868 436.57,201.868 431.5,205.5C 460.657,226.912 489.99,248.078 519.5,269C 523.509,272.161 526.509,275.994 528.5,280.5C 528.5,285.167 528.5,289.833 528.5,294.5C 526.509,299.006 523.509,302.839 519.5,306C 489.99,326.922 460.657,348.088 431.5,369.5C 436.57,373.132 441.403,377.132 446,381.5C 452.28,393.847 450.114,404.347 439.5,413C 301.966,466.944 164.633,521.111 27.5,575.5C 23.1667,575.5 18.8333,575.5 14.5,575.5C 7.16667,572.833 2.16667,567.833 -0.5,560.5C -0.5,556.167 -0.5,551.833 -0.5,547.5C 1.98558,541.725 5.98558,537.225 11.5,534C 84.525,491.164 155.858,445.831 225.5,398C 241.5,386 257.5,374 273.5,362C 284.616,353.052 294.95,343.218 304.5,332.5C 273.864,302.339 273.864,272.172 304.5,242C 294.769,231.6 284.436,221.933 273.5,213C 227.155,177.328 179.155,143.994 129.5,113C 88.2507,87.1237 46.7507,61.6237 5,36.5C 2.6258,33.7368 0.792465,30.7368 -0.5,27.5C -0.5,22.8333 -0.5,18.1667 -0.5,13.5C 2.58628,6.74591 7.58628,2.07924 14.5,-0.5 Z"/></g>
<g><path style="opacity:1" fill="#00214f" d="M 270.5,142.5 C 269.515,146.634 269.182,150.968 269.5,155.5C 255.196,145.343 240.863,135.176 226.5,125C 241.341,130.337 256.008,136.17 270.5,142.5 Z"/></g>
<g><path style="opacity:1" fill="#002c62" d="M 270.5,142.5 C 281.211,145.733 291.545,149.733 301.5,154.5C 301.5,162.833 301.5,171.167 301.5,179.5C 290.569,171.909 279.902,163.909 269.5,155.5C 269.182,150.968 269.515,146.634 270.5,142.5 Z"/></g>
<g><path style="opacity:1" fill="#003370" d="M 301.5,154.5 C 309.479,156.933 317.146,159.933 324.5,163.5C 322.522,174.785 321.855,186.452 322.5,198.5C 315.27,192.391 308.27,186.058 301.5,179.5C 301.5,171.167 301.5,162.833 301.5,154.5 Z"/></g>
<g><path style="opacity:1" fill="#003b7d" d="M 324.5,163.5 C 331.46,165.654 338.126,168.321 344.5,171.5C 343.854,184.212 344.52,196.545 346.5,208.5C 343.821,210.601 340.988,212.601 338,214.5C 333.33,208.663 328.163,203.33 322.5,198.5C 321.855,186.452 322.522,174.785 324.5,163.5 Z"/></g>
<g><path style="opacity:1" fill="#004289" d="M 344.5,171.5 C 357.066,175.784 369.399,180.618 381.5,186C 369.805,193.511 358.138,201.011 346.5,208.5C 344.52,196.545 343.854,184.212 344.5,171.5 Z"/></g>
<g><path style="opacity:0.6" fill="#242424" d="M 390.5,230.5 C 417.1,249.095 443.433,268.095 469.5,287.5C 443.538,306.488 417.538,325.488 391.5,344.5C 369.188,331.7 349.022,316.033 331,297.5C 328.246,294.492 326.413,290.992 325.5,287C 325.993,284.181 327.16,281.681 329,279.5C 338.884,268.615 349.718,258.782 361.5,250C 371.344,243.637 381.01,237.137 390.5,230.5 Z"/></g>
<g><path style="opacity:1" fill="#003c7f" d="M 355.5,372.5 C 354.507,381.318 354.173,390.318 354.5,399.5C 344.815,404.067 334.815,408.067 324.5,411.5C 322.522,400.215 321.855,388.548 322.5,376.5C 328.135,371.697 333.302,366.363 338,360.5C 344.012,364.363 349.845,368.363 355.5,372.5 Z"/></g>
<g><path style="opacity:1" fill="#00438b" d="M 355.5,372.5 C 363.951,377.778 372.284,383.278 380.5,389C 372.171,393.331 363.504,396.831 354.5,399.5C 354.173,390.318 354.507,381.318 355.5,372.5 Z"/></g>
<g><path style="opacity:1" fill="#00316c" d="M 322.5,376.5 C 321.855,388.548 322.522,400.215 324.5,411.5C 313.679,416.069 302.679,420.402 291.5,424.5C 289.541,418.25 288.874,411.584 289.5,404.5C 301.017,395.889 312.017,386.555 322.5,376.5 Z"/></g>
<g><path style="opacity:1" fill="#00275b" d="M 289.5,404.5 C 288.874,411.584 289.541,418.25 291.5,424.5C 284.876,427.934 277.876,430.6 270.5,432.5C 269.515,428.366 269.182,424.032 269.5,419.5C 276.128,414.512 282.795,409.512 289.5,404.5 Z"/></g>
<g><path style="opacity:1" fill="#00204e" d="M 269.5,419.5 C 269.182,424.032 269.515,428.366 270.5,432.5C 257.37,438.223 244.037,443.723 230.5,449C 229.5,449.667 228.5,449.667 227.5,449C 241.704,439.403 255.704,429.57 269.5,419.5 Z"/></g>
</svg>
