<?xml version="1.0" encoding="UTF-8"?>
<!DOCTYPE svg PUBLIC "-//W3C//DTD SVG 1.1//EN" "http://www.w3.org/Graphics/SVG/1.1/DTD/svg11.dtd">
<svg xmlns="http://www.w3.org/2000/svg" version="1.1" width="499px" height="664px" style="shape-rendering:geometricPrecision; text-rendering:geometricPrecision; image-rendering:optimizeQuality; fill-rule:evenodd; clip-rule:evenodd" xmlns:xlink="http://www.w3.org/1999/xlink">
<g><path style="opacity:0.991" fill="#090909" d="M 292.5,-0.5 C 297.167,-0.5 301.833,-0.5 306.5,-0.5C 373.456,42.7417 425.289,99.7417 462,170.5C 482.459,213.024 494.626,257.691 498.5,304.5C 498.5,322.5 498.5,340.5 498.5,358.5C 491.214,439.717 461.381,511.383 409,573.5C 379.187,608.835 345.021,638.835 306.5,663.5C 301.833,663.5 297.167,663.5 292.5,663.5C 192.044,647.504 112.878,597.837 55,514.5C 23.4645,466.765 4.96448,414.431 -0.5,357.5C -0.5,340.167 -0.5,322.833 -0.5,305.5C 12.1499,196.997 63.4832,112.164 153.5,51C 196.022,23.4383 242.356,6.27162 292.5,-0.5 Z"/></g>
<g><path style="opacity:1" fill="#e0e0e0" d="M 282.5,53.5 C 286.182,53.3347 289.848,53.5014 293.5,54C 349.454,93.6175 391.954,144.451 421,206.5C 453.242,284.81 454.909,363.81 426,443.5C 397.766,511.403 353.599,566.57 293.5,609C 275.622,608.199 258.289,604.533 241.5,598C 157.603,565.103 99.4368,506.603 67,422.5C 33.743,315.551 54.743,220.884 130,138.5C 172.14,94.6777 222.973,66.3444 282.5,53.5 Z"/></g>
<g><path style="opacity:1" fill="#0a0a0a" d="M 192.5,194.5 C 233.167,194.5 273.833,194.5 314.5,194.5C 314.5,219.833 314.5,245.167 314.5,270.5C 340.167,270.5 365.833,270.5 391.5,270.5C 391.5,311.167 391.5,351.833 391.5,392.5C 365.833,392.5 340.167,392.5 314.5,392.5C 314.5,417.833 314.5,443.167 314.5,468.5C 273.833,468.5 233.167,468.5 192.5,468.5C 192.5,443.167 192.5,417.833 192.5,392.5C 167.167,392.5 141.833,392.5 116.5,392.5C 116.5,351.833 116.5,311.167 116.5,270.5C 141.833,270.5 167.167,270.5 192.5,270.5C 192.5,245.167 192.5,219.833 192.5,194.5 Z"/></g>
<g><path style="opacity:1" fill="#b2a80e" d="M 282.5,226.5 C 263.5,226.5 244.5,226.5 225.5,226.5C 225.831,252.005 225.498,277.339 224.5,302.5C 224.5,276.833 224.5,251.167 224.5,225.5C 244.007,225.17 263.341,225.503 282.5,226.5 Z"/></g>
<g><path style="opacity:1" fill="#feef0e" d="M 282.5,226.5 C 282.5,251.833 282.5,277.167 282.5,302.5C 308.167,302.5 333.833,302.5 359.5,302.5C 359.5,321.833 359.5,341.167 359.5,360.5C 333.833,360.5 308.167,360.5 282.5,360.5C 282.5,385.833 282.5,411.167 282.5,436.5C 263.167,436.5 243.833,436.5 224.5,436.5C 224.5,411.167 224.5,385.833 224.5,360.5C 199.167,360.5 173.833,360.5 148.5,360.5C 148.5,341.167 148.5,321.833 148.5,302.5C 173.833,302.5 199.167,302.5 224.5,302.5C 225.498,277.339 225.831,252.005 225.5,226.5C 244.5,226.5 263.5,226.5 282.5,226.5 Z"/></g>
</svg>
