<?xml version="1.0" encoding="UTF-8"?>
<!DOCTYPE svg PUBLIC "-//W3C//DTD SVG 1.1//EN" "http://www.w3.org/Graphics/SVG/1.1/DTD/svg11.dtd">
<svg xmlns="http://www.w3.org/2000/svg" version="1.1" width="400px" height="656px" style="shape-rendering:geometricPrecision; text-rendering:geometricPrecision; image-rendering:optimizeQuality; fill-rule:evenodd; clip-rule:evenodd" xmlns:xlink="http://www.w3.org/1999/xlink">
<g><path style="opacity:0.991" fill="#090908" d="M -0.5,-0.5 C 2.5,-0.5 5.5,-0.5 8.5,-0.5C 65.6923,4.24295 120.692,18.0763 173.5,41C 186.321,47.2408 198.654,54.2408 210.5,62C 223.701,73.5336 235.867,86.0336 247,99.5C 267.022,125.045 286.189,151.212 304.5,178C 310.833,178.333 317.167,178.667 323.5,179C 349.226,202.313 369.726,229.48 385,260.5C 392.035,276.658 396.868,293.324 399.5,310.5C 399.5,321.833 399.5,333.167 399.5,344.5C 393.812,380.214 379.645,412.214 357,440.5C 345.868,453.3 334.368,465.8 322.5,478C 315.809,478.169 309.142,478.669 302.5,479.5C 282.066,510.438 259.899,540.105 236,568.5C 221.746,585.102 204.912,598.269 185.5,608C 146.419,627.138 105.419,640.471 62.5,648C 44.3566,650.516 26.3566,653.016 8.5,655.5C 5.5,655.5 2.5,655.5 -0.5,655.5C -0.5,654.833 -0.5,654.167 -0.5,653.5C 37.2672,595.483 74.9338,537.317 112.5,479C 100.486,478.833 88.4861,478.333 76.5,477.5C 106.352,428.474 134.685,378.474 161.5,327.5C 134.178,277.514 105.844,228.181 76.5,179.5C 88.8199,178.667 101.153,178.167 113.5,178C 75.6005,119.017 37.6005,60.1835 -0.5,1.5C -0.5,0.833333 -0.5,0.166667 -0.5,-0.5 Z"/></g>
<g><path style="opacity:1" fill="#4e7e02" d="M 120.5,66.5 C 120.829,80.0105 120.496,93.3438 119.5,106.5C 108.608,90.4025 97.9417,74.0692 87.5,57.5C 98.4823,59.6673 109.482,62.6673 120.5,66.5 Z"/></g>
<g><path style="opacity:1" fill="#467403" d="M 120.5,66.5 C 129.991,69.7747 139.325,73.4414 148.5,77.5C 148.831,102.006 148.498,126.339 147.5,150.5C 137.772,136.101 128.439,121.434 119.5,106.5C 120.496,93.3438 120.829,80.0105 120.5,66.5 Z"/></g>
<g><path style="opacity:1" fill="#416c03" d="M 148.5,77.5 C 153.48,79.3232 158.147,81.6566 162.5,84.5C 162.831,113.671 162.498,142.671 161.5,171.5C 156.598,164.709 151.932,157.709 147.5,150.5C 148.498,126.339 148.831,102.006 148.5,77.5 Z"/></g>
<g><path style="opacity:1" fill="#3c6604" d="M 162.5,84.5 C 168.35,86.7072 173.684,89.7072 178.5,93.5C 178.832,128.004 178.498,162.337 177.5,196.5C 171.421,188.684 166.088,180.35 161.5,171.5C 162.498,142.671 162.831,113.671 162.5,84.5 Z"/></g>
<g><path style="opacity:1" fill="#375f04" d="M 178.5,93.5 C 183.901,96.2044 188.568,99.871 192.5,104.5C 192.832,142.67 192.499,180.67 191.5,218.5C 186.446,211.439 181.779,204.106 177.5,196.5C 178.498,162.337 178.832,128.004 178.5,93.5 Z"/></g>
<g><path style="opacity:1" fill="#335a04" d="M 192.5,104.5 C 197.873,108.871 202.539,113.871 206.5,119.5C 206.5,157.5 206.5,195.5 206.5,233.5C 204.833,233.5 203.167,233.5 201.5,233.5C 197.436,229.053 194.102,224.053 191.5,218.5C 192.499,180.67 192.832,142.67 192.5,104.5 Z"/></g>
<g><path style="opacity:1" fill="#2f5405" d="M 206.5,119.5 C 211.395,124.943 216.062,130.61 220.5,136.5C 220.5,168.833 220.5,201.167 220.5,233.5C 215.833,233.5 211.167,233.5 206.5,233.5C 206.5,195.5 206.5,157.5 206.5,119.5 Z"/></g>
<g><path style="opacity:1" fill="#2a4d05" d="M 220.5,136.5 C 226.545,143.88 232.212,151.546 237.5,159.5C 237.5,184.167 237.5,208.833 237.5,233.5C 231.833,233.5 226.167,233.5 220.5,233.5C 220.5,201.167 220.5,168.833 220.5,136.5 Z"/></g>
<g><path style="opacity:1" fill="#264706" d="M 237.5,159.5 C 242.887,165.262 247.554,171.595 251.5,178.5C 251.5,196.833 251.5,215.167 251.5,233.5C 246.833,233.5 242.167,233.5 237.5,233.5C 237.5,208.833 237.5,184.167 237.5,159.5 Z"/></g>
<g><path style="opacity:1" fill="#214006" d="M 251.5,178.5 C 257.857,186.868 263.857,195.535 269.5,204.5C 269.5,214.167 269.5,223.833 269.5,233.5C 263.5,233.5 257.5,233.5 251.5,233.5C 251.5,215.167 251.5,196.833 251.5,178.5 Z"/></g>
<g><path style="opacity:1" fill="#1b3607" d="M 269.5,204.5 C 276.304,214.156 282.97,223.989 289.5,234C 259.997,234.83 230.664,234.664 201.5,233.5C 203.167,233.5 204.833,233.5 206.5,233.5C 211.167,233.5 215.833,233.5 220.5,233.5C 226.167,233.5 231.833,233.5 237.5,233.5C 242.167,233.5 246.833,233.5 251.5,233.5C 257.5,233.5 263.5,233.5 269.5,233.5C 269.5,223.833 269.5,214.167 269.5,204.5 Z"/></g>
<g><path style="opacity:0.6" fill="#242424" d="M 183.5,276.5 C 237.168,276.333 290.834,276.5 344.5,277C 360.296,310.374 360.462,343.874 345,377.5C 291.237,378.664 237.404,378.831 183.5,378C 193.078,361.679 201.745,344.845 209.5,327.5C 201.081,310.327 192.414,293.327 183.5,276.5 Z"/></g>
<g><path style="opacity:1" fill="#335a04" d="M 201.5,421.5 C 203.167,421.5 204.833,421.5 206.5,421.5C 206.5,459.5 206.5,497.5 206.5,535.5C 202.539,541.129 197.873,546.129 192.5,550.5C 192.832,512.33 192.499,474.33 191.5,436.5C 194.102,430.947 197.436,425.947 201.5,421.5 Z"/></g>
<g><path style="opacity:1" fill="#2f5405" d="M 206.5,421.5 C 211.167,421.5 215.833,421.5 220.5,421.5C 220.5,453.833 220.5,486.167 220.5,518.5C 216.062,524.39 211.395,530.057 206.5,535.5C 206.5,497.5 206.5,459.5 206.5,421.5 Z"/></g>
<g><path style="opacity:1" fill="#2a4d05" d="M 220.5,421.5 C 226.167,421.5 231.833,421.5 237.5,421.5C 237.5,446.167 237.5,470.833 237.5,495.5C 232.212,503.454 226.545,511.12 220.5,518.5C 220.5,486.167 220.5,453.833 220.5,421.5 Z"/></g>
<g><path style="opacity:1" fill="#264706" d="M 237.5,421.5 C 242.167,421.5 246.833,421.5 251.5,421.5C 251.5,439.833 251.5,458.167 251.5,476.5C 247.554,483.405 242.887,489.738 237.5,495.5C 237.5,470.833 237.5,446.167 237.5,421.5 Z"/></g>
<g><path style="opacity:1" fill="#214106" d="M 251.5,421.5 C 256.167,421.5 260.833,421.5 265.5,421.5C 265.5,433.167 265.5,444.833 265.5,456.5C 261.19,463.466 256.523,470.133 251.5,476.5C 251.5,458.167 251.5,439.833 251.5,421.5 Z"/></g>
<g><path style="opacity:1" fill="#1c3807" d="M 201.5,421.5 C 230.336,420.17 259.336,420.17 288.5,421.5C 281.167,433.478 273.5,445.144 265.5,456.5C 265.5,444.833 265.5,433.167 265.5,421.5C 260.833,421.5 256.167,421.5 251.5,421.5C 246.833,421.5 242.167,421.5 237.5,421.5C 231.833,421.5 226.167,421.5 220.5,421.5C 215.833,421.5 211.167,421.5 206.5,421.5C 204.833,421.5 203.167,421.5 201.5,421.5 Z"/></g>
<g><path style="opacity:1" fill="#375f04" d="M 191.5,436.5 C 192.499,474.33 192.832,512.33 192.5,550.5C 188.568,555.129 183.901,558.796 178.5,561.5C 178.832,526.996 178.498,492.663 177.5,458.5C 181.779,450.894 186.446,443.561 191.5,436.5 Z"/></g>
<g><path style="opacity:1" fill="#3c6604" d="M 177.5,458.5 C 178.498,492.663 178.832,526.996 178.5,561.5C 173.498,565.003 168.165,568.003 162.5,570.5C 162.831,541.329 162.498,512.329 161.5,483.5C 166.088,474.65 171.421,466.316 177.5,458.5 Z"/></g>
<g><path style="opacity:1" fill="#416c03" d="M 161.5,483.5 C 162.498,512.329 162.831,541.329 162.5,570.5C 158.147,573.343 153.48,575.677 148.5,577.5C 148.831,552.994 148.498,528.661 147.5,504.5C 151.932,497.291 156.598,490.291 161.5,483.5 Z"/></g>
<g><path style="opacity:1" fill="#467403" d="M 147.5,504.5 C 148.498,528.661 148.831,552.994 148.5,577.5C 139.33,581.557 129.996,585.224 120.5,588.5C 120.829,574.99 120.496,561.656 119.5,548.5C 128.412,533.583 137.745,518.917 147.5,504.5 Z"/></g>
<g><path style="opacity:1" fill="#4e7f02" d="M 119.5,548.5 C 120.496,561.656 120.829,574.99 120.5,588.5C 109.494,592.33 98.4936,595.33 87.5,597.5C 97.9417,580.931 108.608,564.598 119.5,548.5 Z"/></g>
</svg>
