<?xml version="1.0" encoding="UTF-8"?>
<!DOCTYPE svg PUBLIC "-//W3C//DTD SVG 1.1//EN" "http://www.w3.org/Graphics/SVG/1.1/DTD/svg11.dtd">
<svg xmlns="http://www.w3.org/2000/svg" version="1.1" width="957px" height="1273px" style="shape-rendering:geometricPrecision; text-rendering:geometricPrecision; image-rendering:optimizeQuality; fill-rule:evenodd; clip-rule:evenodd" xmlns:xlink="http://www.w3.org/1999/xlink">
<g><path style="opacity:0.995" fill="#090909" d="M 571.5,-0.5 C 576.5,-0.5 581.5,-0.5 586.5,-0.5C 704.703,75.2039 798.87,173.871 869,295.5C 920.998,389.984 950.164,490.984 956.5,598.5C 956.5,623.5 956.5,648.5 956.5,673.5C 947.55,813.533 902.05,940.2 820,1053.5C 755.724,1141.29 677.89,1214.29 586.5,1272.5C 581.5,1272.5 576.5,1272.5 571.5,1272.5C 455.418,1259.44 351.084,1217.61 258.5,1147C 147.134,1061.26 69.6345,951.43 26,817.5C 11.6451,769.692 2.81181,721.025 -0.5,671.5C -0.5,647.833 -0.5,624.167 -0.5,600.5C 13.5061,427.663 83.8394,282.497 210.5,165C 283.228,98.7765 366.894,50.7765 461.5,21C 497.652,10.4785 534.319,3.31183 571.5,-0.5 Z"/></g>
<g><path style="opacity:1" fill="#242424" d="M 556.5,98.5 C 558.989,98.2978 561.323,98.7978 563.5,100C 652.425,162.916 724.591,241.082 780,334.5C 859.585,476.599 880.252,626.932 842,785.5C 815.654,882.213 769.988,968.213 705,1043.5C 662.904,1092.23 615.737,1135.07 563.5,1172C 561.801,1172.96 559.967,1173.46 558,1173.5C 475.847,1160.49 401.014,1129.99 333.5,1082C 213.21,996.003 137.043,880.503 105,735.5C 75.3006,544.604 128.801,381.437 265.5,246C 332.816,181.653 411.483,136.32 501.5,110C 519.887,105.572 538.22,101.739 556.5,98.5 Z"/></g>
<g><path style="opacity:1" fill="#0a0a0a" d="M 582.5,300.5 C 584.021,385.33 585.021,470.33 585.5,555.5C 665.92,582.029 746.253,608.862 826.5,636C 745.998,663.334 665.332,690.167 584.5,716.5C 584.232,801.501 583.732,886.501 583,971.5C 533.667,904.833 484.333,838.167 435,771.5C 433.735,769.603 432.069,768.27 430,767.5C 349.349,792.938 268.849,817.938 188.5,842.5C 237.709,773.795 286.709,704.962 335.5,636C 287.042,567.372 238.376,498.872 189.5,430.5C 191.766,429.794 194.099,429.961 196.5,431C 274.264,455.699 352.097,480.199 430,504.5C 432.069,503.73 433.735,502.397 435,500.5C 484.384,433.956 533.551,367.289 582.5,300.5 Z"/></g>
<g><path style="opacity:1" fill="#feef0f" d="M 538.5,434.5 C 539.167,449.5 539.833,464.5 540.5,479.5C 540.328,515.516 540.995,551.516 542.5,587.5C 590.537,603.568 638.537,619.735 686.5,636C 637.983,652.673 589.316,668.839 540.5,684.5C 540.5,722.167 540.5,759.833 540.5,797.5C 539.833,810.833 539.167,824.167 538.5,837.5C 508.71,796.232 478.21,755.566 447,715.5C 398.405,731.093 349.905,746.093 301.5,760.5C 331.289,719.088 360.956,677.588 390.5,636C 360.956,594.412 331.289,552.912 301.5,511.5C 349.905,525.907 398.405,540.907 447,556.5C 478.21,516.434 508.71,475.768 538.5,434.5 Z"/></g>
<g><path style="opacity:1" fill="#a39a0d" d="M 538.5,434.5 C 538.56,433.957 538.893,433.624 539.5,433.5C 540.499,448.819 540.833,464.152 540.5,479.5C 539.833,464.5 539.167,449.5 538.5,434.5 Z"/></g>
<g><path style="opacity:1" fill="#827a0c" d="M 540.5,797.5 C 540.833,811.183 540.499,824.85 539.5,838.5C 538.893,838.376 538.56,838.043 538.5,837.5C 539.167,824.167 539.833,810.833 540.5,797.5 Z"/></g>
</svg>
