<?xml version="1.0" encoding="UTF-8"?>
<!DOCTYPE svg PUBLIC "-//W3C//DTD SVG 1.1//EN" "http://www.w3.org/Graphics/SVG/1.1/DTD/svg11.dtd">
<svg xmlns="http://www.w3.org/2000/svg" version="1.1" width="499px" height="664px" style="shape-rendering:geometricPrecision; text-rendering:geometricPrecision; image-rendering:optimizeQuality; fill-rule:evenodd; clip-rule:evenodd" xmlns:xlink="http://www.w3.org/1999/xlink">
<g><path style="opacity:0.991" fill="#090909" d="M 292.5,-0.5 C 297.167,-0.5 301.833,-0.5 306.5,-0.5C 373.456,42.7417 425.289,99.7417 462,170.5C 482.459,213.024 494.626,257.691 498.5,304.5C 498.5,322.5 498.5,340.5 498.5,358.5C 491.214,439.717 461.381,511.383 409,573.5C 379.187,608.835 345.021,638.835 306.5,663.5C 301.833,663.5 297.167,663.5 292.5,663.5C 192.044,647.504 112.878,597.837 55,514.5C 23.4645,466.765 4.96448,414.431 -0.5,357.5C -0.5,340.167 -0.5,322.833 -0.5,305.5C 12.1499,196.997 63.4832,112.164 153.5,51C 196.022,23.4383 242.356,6.27162 292.5,-0.5 Z"/></g>
<g><path style="opacity:1" fill="#2c2c2c" d="M 282.5,53.5 C 286.182,53.3347 289.848,53.5014 293.5,54C 361.942,102.024 409.108,165.858 435,245.5C 463.487,363.895 436.487,467.561 354,556.5C 335.422,576.007 315.255,593.507 293.5,609C 278.845,608.39 264.512,605.723 250.5,601C 155.826,566.993 92.9928,502.16 62,406.5C 34.7879,289.808 66.2879,192.308 156.5,114C 193.699,83.9011 235.699,63.7344 282.5,53.5 Z"/></g>
<g><path style="opacity:1" fill="#010100" d="M 307.5,93.5 C 308.376,93.3691 309.043,93.7025 309.5,94.5C 305.437,112.444 303.103,130.611 302.5,149C 302.098,173.559 307.598,196.726 319,218.5C 328.754,233.008 338.754,247.341 349,261.5C 378.285,309.207 384.952,359.874 369,413.5C 366.25,421.414 362.917,429.081 359,436.5C 329,480.5 299,524.5 269,568.5C 246.833,544.333 224.667,520.167 202.5,496C 221.833,472.667 241.167,449.333 260.5,426C 197.277,408.08 174.777,367.247 193,303.5C 195.872,295.05 199.039,286.716 202.5,278.5C 201.333,278.167 200.167,277.833 199,277.5C 175.437,280.9 151.937,284.566 128.5,288.5C 128.125,262.795 135.292,239.462 150,218.5C 164.718,198.113 181.884,179.946 201.5,164C 234.664,137.25 269.998,113.75 307.5,93.5 Z"/></g>
<g><path style="opacity:1" fill="#fbec0e" d="M 268.5,153.5 C 270.659,185.085 279.826,214.752 296,242.5C 305.388,254.889 314.388,267.555 323,280.5C 347.907,321.831 352.24,365.164 336,410.5C 313.481,446.513 289.981,481.846 265.5,516.5C 258.492,509.492 251.826,502.158 245.5,494.5C 270.833,463.5 296.167,432.5 321.5,401.5C 305.796,399.936 290.129,398.103 274.5,396C 225.801,387.123 208.967,358.957 224,311.5C 232.26,288.139 243.76,266.639 258.5,247C 229.004,243.077 199.67,243.911 170.5,249.5C 170.167,249.167 169.833,248.833 169.5,248.5C 174.69,238.814 180.857,229.814 188,221.5C 196.5,213 205,204.5 213.5,196C 231.18,180.845 249.513,166.679 268.5,153.5 Z"/></g>
<g><path style="opacity:1" fill="#020100" d="M 270.5,287.5 C 304.096,288.761 323.096,306.094 327.5,339.5C 324.946,368.051 309.279,382.384 280.5,382.5C 259.848,382.099 244.348,373.099 234,355.5C 227.479,332.721 233.312,313.554 251.5,298C 257.316,293.428 263.649,289.928 270.5,287.5 Z"/></g>
<g><path style="opacity:1" fill="#2c2c2c" d="M 276.5,319.5 C 287.324,322.329 293.658,329.329 295.5,340.5C 295.42,346.414 292.42,349.58 286.5,350C 277.299,351.71 269.465,349.21 263,342.5C 263.373,332.422 267.873,324.756 276.5,319.5 Z"/></g>
</svg>
