<?xml version="1.0" encoding="UTF-8"?>
<!DOCTYPE svg PUBLIC "-//W3C//DTD SVG 1.1//EN" "http://www.w3.org/Graphics/SVG/1.1/DTD/svg11.dtd">
<svg xmlns="http://www.w3.org/2000/svg" version="1.1" width="499px" height="664px" style="shape-rendering:geometricPrecision; text-rendering:geometricPrecision; image-rendering:optimizeQuality; fill-rule:evenodd; clip-rule:evenodd" xmlns:xlink="http://www.w3.org/1999/xlink">
<g><path style="opacity:0.991" fill="#090909" d="M 292.5,-0.5 C 297.167,-0.5 301.833,-0.5 306.5,-0.5C 373.456,42.7417 425.289,99.7417 462,170.5C 482.459,213.024 494.626,257.691 498.5,304.5C 498.5,322.5 498.5,340.5 498.5,358.5C 491.214,439.717 461.381,511.383 409,573.5C 379.187,608.835 345.021,638.835 306.5,663.5C 301.833,663.5 297.167,663.5 292.5,663.5C 192.044,647.504 112.878,597.837 55,514.5C 23.4645,466.765 4.96448,414.431 -0.5,357.5C -0.5,340.167 -0.5,322.833 -0.5,305.5C 12.1499,196.997 63.4832,112.164 153.5,51C 196.022,23.4383 242.356,6.27162 292.5,-0.5 Z"/></g>
<g><path style="opacity:1" fill="#2c2c2c" d="M 282.5,53.5 C 286.182,53.3347 289.848,53.5014 293.5,54C 361.942,102.024 409.108,165.858 435,245.5C 463.487,363.895 436.487,467.561 354,556.5C 335.422,576.007 315.255,593.507 293.5,609C 278.845,608.39 264.512,605.723 250.5,601C 155.826,566.993 92.9928,502.16 62,406.5C 34.7879,289.808 66.2879,192.308 156.5,114C 193.699,83.9011 235.699,63.7344 282.5,53.5 Z"/></g>
<g><path style="opacity:1" fill="#0a0a09" d="M 165.5,134.5 C 201.271,135.422 235.938,142.589 269.5,156C 280.283,160.89 290.616,166.557 300.5,173C 320.899,193.504 338.899,215.837 354.5,240C 362.833,240.333 371.167,240.667 379.5,241C 402.011,260.174 417.178,284.007 425,312.5C 429.616,345.039 421.616,374.039 401,399.5C 394.283,407.095 387.45,414.595 380.5,422C 371.601,423.278 362.601,423.945 353.5,424C 338.475,448.01 320.808,470.01 300.5,490C 274.964,506.074 247.297,517.074 217.5,523C 200.583,526.408 183.583,528.241 166.5,528.5C 188.833,493.833 211.167,459.167 233.5,424.5C 217.177,423.667 200.844,423.167 184.5,423C 202.466,392.906 219.799,362.406 236.5,331.5C 220.051,300.762 202.718,270.596 184.5,241C 201.167,240.667 217.833,240.333 234.5,240C 211.849,204.512 188.849,169.345 165.5,134.5 Z"/></g>
<g><path style="opacity:1" fill="#fdee0f" d="M 240.5,272.5 C 257.846,272.833 275.179,272.5 292.5,271.5C 292.376,270.893 292.043,270.56 291.5,270.5C 272.229,239.469 252.562,208.636 232.5,178C 249.596,181.876 265.596,188.543 280.5,198C 287.917,205.027 294.75,212.527 301,220.5C 313.555,237.389 325.722,254.556 337.5,272C 347.167,272.333 356.833,272.667 366.5,273C 403.975,312.522 403.642,351.856 365.5,391C 355.59,391.18 345.756,391.68 336,392.5C 320.045,418.557 301.545,442.724 280.5,465C 265.982,473.955 250.482,480.788 234,485.5C 232.743,485.15 232.409,484.483 233,483.5C 252.958,453.085 272.791,422.585 292.5,392C 275.157,391.833 257.824,391.333 240.5,390.5C 251.929,371.313 262.596,351.646 272.5,331.5C 262.075,311.647 251.408,291.98 240.5,272.5 Z"/></g>
<g><path style="opacity:1" fill="#29270a" d="M 291.5,270.5 C 292.043,270.56 292.376,270.893 292.5,271.5C 275.179,272.5 257.846,272.833 240.5,272.5C 257.5,271.833 274.5,271.167 291.5,270.5 Z"/></g>
</svg>
