<?xml version="1.0" encoding="UTF-8"?>
<!DOCTYPE svg PUBLIC "-//W3C//DTD SVG 1.1//EN" "http://www.w3.org/Graphics/SVG/1.1/DTD/svg11.dtd">
<svg xmlns="http://www.w3.org/2000/svg" version="1.1" width="376px" height="592px" style="shape-rendering:geometricPrecision; text-rendering:geometricPrecision; image-rendering:optimizeQuality; fill-rule:evenodd; clip-rule:evenodd" xmlns:xlink="http://www.w3.org/1999/xlink">
<g><path style="opacity:0.99" fill="#090909" d="M -0.5,-0.5 C 1.16667,-0.5 2.83333,-0.5 4.5,-0.5C 45.8577,6.84037 86.5243,17.3404 126.5,31C 203.101,58.8669 269.267,102.367 325,161.5C 332.712,170.21 340.045,179.21 347,188.5C 356.525,203.564 366.025,218.564 375.5,233.5C 375.5,234.167 375.5,234.833 375.5,235.5C 367.134,234.995 358.801,234.495 350.5,234C 354.949,254.213 356.949,274.713 356.5,295.5C 356.978,316.099 354.978,336.433 350.5,356.5C 351.333,356.833 352.167,357.167 353,357.5C 360.457,356.338 367.957,355.671 375.5,355.5C 375.5,356.167 375.5,356.833 375.5,357.5C 366.025,372.436 356.525,387.436 347,402.5C 287.821,476.639 213.321,529.473 123.5,561C 84.4789,574.171 44.8122,584.338 4.5,591.5C 2.83333,591.5 1.16667,591.5 -0.5,591.5C -0.5,590.5 -0.5,589.5 -0.5,588.5C 31.9348,520.064 64.1015,451.397 96,382.5C 119.645,379.653 143.312,376.987 167,374.5C 176.004,321.974 176.837,269.307 169.5,216.5C 144.926,214.161 120.426,211.494 96,208.5C 64.1015,139.603 31.9348,70.9363 -0.5,2.5C -0.5,1.5 -0.5,0.5 -0.5,-0.5 Z"/></g>
<g><path style="opacity:1" fill="#7b4e00" d="M 112.5,72.5 C 112.5,95.1667 112.5,117.833 112.5,140.5C 99.9417,114.378 87.6084,88.0446 75.5,61.5C 76,61.1667 76.5,60.8333 77,60.5C 89.1055,64.0347 100.939,68.0347 112.5,72.5 Z"/></g>
<g><path style="opacity:1" fill="#845400" d="M 112.5,72.5 C 122.815,75.9332 132.815,79.9332 142.5,84.5C 141.833,98.496 141.5,112.663 141.5,127C 141.517,141.721 142.183,156.221 143.5,170.5C 137.489,170.199 131.489,169.699 125.5,169C 120.875,159.619 116.541,150.119 112.5,140.5C 112.5,117.833 112.5,95.1667 112.5,72.5 Z"/></g>
<g><path style="opacity:1" fill="#8d5900" d="M 142.5,84.5 C 155.763,89.7983 168.43,96.1316 180.5,103.5C 179.502,126.661 179.169,149.994 179.5,173.5C 181.735,173.205 183.735,173.539 185.5,174.5C 171.471,173.43 157.471,172.097 143.5,170.5C 142.183,156.221 141.517,141.721 141.5,127C 141.5,112.663 141.833,98.496 142.5,84.5 Z"/></g>
<g><path style="opacity:1" fill="#976000" d="M 180.5,103.5 C 188.36,107.044 195.693,111.378 202.5,116.5C 201.503,135.993 201.17,155.66 201.5,175.5C 203.415,175.216 205.081,175.549 206.5,176.5C 199.468,176.126 192.468,175.459 185.5,174.5C 183.735,173.539 181.735,173.205 179.5,173.5C 179.169,149.994 179.502,126.661 180.5,103.5 Z"/></g>
<g><path style="opacity:1" fill="#a16600" d="M 202.5,116.5 C 215.206,123.85 227.206,132.183 238.5,141.5C 237.505,153.989 237.171,166.656 237.5,179.5C 227.126,178.829 216.793,177.829 206.5,176.5C 205.081,175.549 203.415,175.216 201.5,175.5C 201.17,155.66 201.503,135.993 202.5,116.5 Z"/></g>
<g><path style="opacity:1" fill="#aa6c00" d="M 238.5,141.5 C 255.186,154.009 270.853,167.843 285.5,183C 269.438,182.827 253.438,181.66 237.5,179.5C 237.171,166.656 237.505,153.989 238.5,141.5 Z"/></g>
<g><path style="opacity:0.6" fill="#242424" d="M 213.5,220.5 C 243.835,223.243 274.169,226.076 304.5,229C 310.962,250.642 313.962,272.809 313.5,295.5C 313.731,317.968 310.731,339.968 304.5,361.5C 273.88,364.981 243.213,367.981 212.5,370.5C 217.185,331.636 218.685,292.636 217,253.5C 216.402,242.423 215.236,231.423 213.5,220.5 Z"/></g>
<g><path style="opacity:1" fill="#a96b00" d="M 238.5,449.5 C 237.505,437.011 237.171,424.344 237.5,411.5C 253.438,409.34 269.438,408.173 285.5,408C 270.853,423.157 255.186,436.991 238.5,449.5 Z"/></g>
<g><path style="opacity:1" fill="#9f6500" d="M 237.5,411.5 C 237.171,424.344 237.505,437.011 238.5,449.5C 227.206,458.817 215.206,467.15 202.5,474.5C 201.503,455.007 201.17,435.34 201.5,415.5C 203.415,415.784 205.081,415.451 206.5,414.5C 216.793,413.171 227.126,412.171 237.5,411.5 Z"/></g>
<g><path style="opacity:1" fill="#976000" d="M 206.5,414.5 C 205.081,415.451 203.415,415.784 201.5,415.5C 201.17,435.34 201.503,455.007 202.5,474.5C 195.693,479.622 188.36,483.956 180.5,487.5C 179.502,464.339 179.169,441.006 179.5,417.5C 181.735,417.795 183.735,417.461 185.5,416.5C 192.468,415.541 199.468,414.874 206.5,414.5 Z"/></g>
<g><path style="opacity:1" fill="#8d5900" d="M 185.5,416.5 C 183.735,417.461 181.735,417.795 179.5,417.5C 179.169,441.006 179.502,464.339 180.5,487.5C 168.43,494.868 155.763,501.202 142.5,506.5C 141.833,492.504 141.5,478.337 141.5,464C 141.517,449.279 142.183,434.779 143.5,420.5C 157.471,418.903 171.471,417.57 185.5,416.5 Z"/></g>
<g><path style="opacity:1" fill="#855400" d="M 143.5,420.5 C 142.183,434.779 141.517,449.279 141.5,464C 141.5,478.337 141.833,492.504 142.5,506.5C 136.136,509.737 129.47,512.403 122.5,514.5C 122.5,486.167 122.5,457.833 122.5,429.5C 123.009,426.808 124.009,424.308 125.5,422C 131.489,421.301 137.489,420.801 143.5,420.5 Z"/></g>
<g><path style="opacity:1" fill="#805100" d="M 122.5,429.5 C 122.5,457.833 122.5,486.167 122.5,514.5C 115.613,518.132 108.279,520.798 100.5,522.5C 99.504,508.01 99.1707,493.343 99.5,478.5C 106.604,461.833 114.27,445.499 122.5,429.5 Z"/></g>
<g><path style="opacity:1" fill="#774c00" d="M 99.5,478.5 C 99.1707,493.343 99.504,508.01 100.5,522.5C 92.4743,526.254 84.141,528.587 75.5,529.5C 83.275,512.288 91.275,495.288 99.5,478.5 Z"/></g>
</svg>
