<?xml version="1.0" encoding="UTF-8"?>
<!DOCTYPE svg PUBLIC "-//W3C//DTD SVG 1.1//EN" "http://www.w3.org/Graphics/SVG/1.1/DTD/svg11.dtd">
<svg xmlns="http://www.w3.org/2000/svg" version="1.1" width="499px" height="664px" style="shape-rendering:geometricPrecision; text-rendering:geometricPrecision; image-rendering:optimizeQuality; fill-rule:evenodd; clip-rule:evenodd" xmlns:xlink="http://www.w3.org/1999/xlink">
<g><path style="opacity:0.991" fill="#090909" d="M 292.5,-0.5 C 297.167,-0.5 301.833,-0.5 306.5,-0.5C 373.456,42.7417 425.289,99.7417 462,170.5C 482.459,213.024 494.626,257.691 498.5,304.5C 498.5,322.5 498.5,340.5 498.5,358.5C 491.214,439.717 461.381,511.383 409,573.5C 379.187,608.835 345.021,638.835 306.5,663.5C 301.833,663.5 297.167,663.5 292.5,663.5C 192.044,647.504 112.878,597.837 55,514.5C 23.4645,466.765 4.96448,414.431 -0.5,357.5C -0.5,340.167 -0.5,322.833 -0.5,305.5C 12.1499,196.997 63.4832,112.164 153.5,51C 196.022,23.4383 242.356,6.27162 292.5,-0.5 Z"/></g>
<g><path style="opacity:1" fill="#2c2c2c" d="M 282.5,53.5 C 286.182,53.3347 289.848,53.5014 293.5,54C 361.942,102.024 409.108,165.858 435,245.5C 463.487,363.895 436.487,467.561 354,556.5C 335.422,576.007 315.255,593.507 293.5,609C 278.845,608.39 264.512,605.723 250.5,601C 155.826,566.993 92.9928,502.16 62,406.5C 34.7879,289.808 66.2879,192.308 156.5,114C 193.699,83.9011 235.699,63.7344 282.5,53.5 Z"/></g>
<g><path style="opacity:1" fill="#0a0909" d="M 205.5,174.5 C 207.329,211.153 208.162,248.153 208,285.5C 235.206,241.317 274.706,222.483 326.5,229C 365.291,237.462 393.124,259.629 410,295.5C 428.266,346.02 417.766,389.52 378.5,426C 343.848,452.33 305.848,458.33 264.5,444C 239.111,432.944 219.778,415.277 206.5,391C 172.835,390.5 139.168,390.333 105.5,390.5C 105.333,351.832 105.5,313.165 106,274.5C 139.368,241.299 172.535,207.965 205.5,174.5 Z"/></g>
<g><path style="opacity:1" fill="#8c840c" d="M 173.5,252.5 C 173.56,251.957 173.893,251.624 174.5,251.5C 175.5,274.49 175.833,297.49 175.5,320.5C 174.833,297.833 174.167,275.167 173.5,252.5 Z"/></g>
<g><path style="opacity:1" fill="#feef0f" d="M 173.5,252.5 C 174.167,275.167 174.833,297.833 175.5,320.5C 184.16,321.166 192.994,321.5 202,321.5C 211.193,321.498 220.026,320.832 228.5,319.5C 242.864,277.651 272.197,257.818 316.5,260C 354.317,266.816 377.483,288.983 386,326.5C 389.68,371.329 370.513,401.496 328.5,417C 286.507,425.747 255.007,411.581 234,374.5C 232.094,369.028 229.928,363.694 227.5,358.5C 198.005,357.502 168.338,357.169 138.5,357.5C 138.5,334.167 138.5,310.833 138.5,287.5C 150.5,276.167 162.167,264.5 173.5,252.5 Z"/></g>
<g><path style="opacity:1" fill="#9d940d" d="M 228.5,319.5 C 220.026,320.832 211.193,321.498 202,321.5C 192.994,321.5 184.16,321.166 175.5,320.5C 193.243,320.819 210.91,320.486 228.5,319.5 Z"/></g>
<g><path style="opacity:1" fill="#b1a70d" d="M 138.5,287.5 C 138.5,310.833 138.5,334.167 138.5,357.5C 168.338,357.169 198.005,357.502 227.5,358.5C 197.5,358.5 167.5,358.5 137.5,358.5C 137.169,334.661 137.502,310.994 138.5,287.5 Z"/></g>
</svg>
